<svg width="167" height="144" viewBox="0 0 167 144" fill="none" xmlns="http://www.w3.org/2000/svg">
<path d="M83.4024 0L41.7011 71.639L-0.000217324 143.278H83.4024H166.812L125.11 71.639L83.4024 0Z" fill="#382530"/>
<path d="M59.921 55.6388L69.576 38.6462L79.2245 55.6388L83.6048 63.3549L97.4509 38.9791L129.229 94.9182H109.926L97.4509 72.9577L93.2598 80.341L83.6048 97.3335L69.576 72.6313L56.9116 94.9182H37.6146L59.921 55.6388Z" fill="#B499BF"/>
<path d="M59.921 99.1745L69.576 82.1819L79.2245 99.1745L83.6048 106.884L97.4509 82.5083L129.229 138.454H109.926L97.4509 116.493L93.2598 123.877L83.6048 140.869L69.576 116.167L56.9116 138.454H37.6146L59.921 99.1745Z" fill="#72BE91"/>
</svg>
