<?xml version="1.0" standalone="no"?>
<svg viewBox="-350 -150 1500 1500" style="width: 487.5px; height: 487.5px; justify-content: center; align-self: center; transform: scale(-1, 1);" xmlns="http://www.w3.org/2000/svg"><g transform="rotate(360 421.22829818725586 617.2706527709961)"><g transform="translate(0 459)"><path d="M672.559 227.567C663.843 193.767 655.827 179.436 640.344 167.688C625.861 156.7 604.72 147.471 573.872 140.729C541.742 135.113 540.831 118.417 532.775 91.5829C530.425 83.5158 518.779 81.3693 513.752 87.1839C513.044 86.4192 512.305 85.7188 511.54 85.0859C512.225 81.2386 506.622 70.2114 506.809 66.5313C508.763 28.1186 496.196 8.82912 464.83 1.6585C458.009 0.0983833 411.677 -0.81986 405.026 1.01861C375.95 9.05596 347.327 34.5746 351.707 65.3154C342.58 77.2407 333.648 84.5193 319.567 88.3616C288.231 92.3397 256.897 95.877 225.553 98.9051C164.196 108.526 106.67 140.997 67.3517 188.352C63.7252 192.723 62.6775 198.657 65.8781 203.318C63.3709 214.055 49.2578 240.099 60.3625 247.459C42.1015 291.125 0.0858881 375.526 0.00706456 399.638C-0.324075 500.934 10.6202 632.784 110.597 688.84C114.6 692.774 115.173 697.128 116.906 702.982C121.301 721.423 137.264 734.603 154.736 733.527C240.807 735.439 324.171 724.941 410.244 724.433C448.201 724.208 493.849 729.873 526.823 733.647C559.796 737.421 593.082 734.083 624.725 724.433C627.394 728.632 632.788 731.079 638.261 729.873C671.065 723.357 697.592 703.146 720.696 681.055C727.757 668.214 755.33 631.626 744.37 618.89C754.305 576.898 753.789 531.777 736.134 491.79C738.637 484.46 734.075 476.405 736.134 468.836C737.624 463.358 741.44 461.093 743.361 455.669C746.064 448.036 743.124 437.797 740.081 430.008C738.834 426.126 742.376 421.948 743.361 417.987C748.03 399.304 737.338 400.951 729.63 388.461C729.745 388.422 731.75 379.506 731.741 379.55C732.921 373.184 729.964 365.029 727.385 359.715C725.642 356.124 721.908 353.876 718.199 354.288C721.935 341.607 726.66 331.055 731.741 318.838C740.727 297.302 752.101 276.68 765.004 257.187C770.289 249.205 763.192 239.957 754.641 239.413C726.963 237.655 699.588 233.671 672.559 227.567Z" transform="translate(37.54753 -31.00012)" fill="#FFFFFF" stroke="none"></path><path d="M692.389 192.767C705.499 193.517 718.589 194.517 731.659 195.767C744.349 196.966 757.329 197.836 769.789 200.566C771.499 200.947 772.979 203.236 772.278 204.956C771.809 206.107 771.339 207.256 770.859 208.406C756.448 243.486 740.278 277.777 722.999 311.527C726.988 311.756 730.419 313.027 732.039 317.656C735.009 326.187 737.109 335.806 734.209 344.566C734.109 344.867 733.829 344.926 733.619 344.806C733.528 349.656 735.169 354.406 738.619 357.956C741.619 361.027 745.659 362.966 748.209 366.496C752.416 372.316 749.544 376.979 746.49 381.936C745.907 382.882 745.318 383.839 744.769 384.816C742.589 388.699 744.831 390.682 747.328 392.89C748.278 393.73 749.265 394.603 750.059 395.626C752.589 398.886 753.278 402.857 752.769 406.886C752.189 411.476 750.179 415.756 748.049 419.816C745.479 424.736 743.149 430.327 739.559 434.577C739.429 434.726 739.299 434.857 739.159 434.956C739.198 434.947 739.229 434.947 739.259 434.947C739.799 434.937 740.499 435.816 740.679 436.256C740.889 436.726 741.089 437.206 741.299 437.676C741.278 437.626 741.259 437.566 741.238 437.517C741.028 436.956 741.669 436.536 742.129 436.546C742.738 436.556 743.749 437.697 743.948 438.216C747.579 446.486 750.729 454.947 753.399 463.576C754.469 467.716 755.539 471.857 756.609 475.996C758.039 482.117 758.889 488.256 759.749 494.456C760.409 498.626 760.899 502.826 761.189 507.046C761.869 513.256 762.269 519.496 762.389 525.746C762.309 535.886 761.169 545.896 759.769 555.926C759.309 560.066 758.629 564.156 757.749 568.216C756.698 574.386 755.269 580.476 753.459 586.476C752.549 590.226 751.649 593.976 750.749 597.716C750.349 598.796 749.948 599.876 749.549 600.956C748.869 603.336 748.049 605.687 747.059 607.976C746.7 609.073 746.312 610.156 745.907 611.231C737.6 608.771 729.239 606.706 720.4 606.565C715.249 606.482 715.248 614.482 720.4 614.565C728.107 614.689 735.447 616.435 742.717 618.577C741.591 620.842 740.359 623.06 739.009 625.226C735.289 632.536 731.609 639.786 727.289 646.767C724.809 650.796 722.079 654.666 719.179 658.396C714.198 664.777 708.499 670.916 701.919 675.726C698.738 678.277 695.369 680.617 691.639 682.246C687.359 684.117 683.059 685.527 678.528 686.607C676.009 687.206 673.488 687.697 670.909 688.027C667.849 688.406 664.749 688.447 661.689 688.906C658.909 689.316 656.169 689.926 653.539 690.926C652.129 691.466 650.929 692.077 649.818 692.796C648.889 693.607 647.988 694.536 647.028 695.656C647.009 695.687 646.988 695.706 646.959 695.716C646.139 698.236 644.159 700.267 640.799 700.827C622.119 703.937 603.698 704.286 584.869 702.327C566.349 700.406 547.988 697.316 529.448 695.577C518.583 694.556 507.695 693.808 496.796 693.242C498.147 690.54 499.569 687.867 500.942 685.16C503.264 680.577 496.364 676.524 494.034 681.122C492.059 685.018 489.976 688.877 488.115 692.827C445.3 691.013 402.29 692.118 359.436 693.219C348.428 693.502 337.43 693.785 326.448 694.017C291.849 694.746 257.269 695.126 222.679 696.277C206.416 696.814 190.124 697.542 173.827 698.148C172.496 693.921 171 689.746 169.569 685.534C167.923 680.685 160.194 682.766 161.855 687.66C163.078 691.263 164.352 694.835 165.528 698.438C150.318 698.954 135.109 699.324 119.919 699.267C119.499 699.267 119.089 699.206 118.699 699.077C118.649 699.396 118.599 699.706 118.549 700.017C118.519 700.176 118.279 700.136 118.279 699.976C118.279 699.636 118.279 699.286 118.259 698.926C117.049 698.416 116.069 697.357 115.709 696.056C114.569 691.896 114.639 687.726 115.229 683.566C114.209 681.376 112.859 679.437 111.109 677.966C105.789 673.496 97.7494 672.456 91.5794 669.296C86.7894 666.857 82.2494 663.966 77.9594 660.726C69.0994 654.056 61.5794 646.056 54.9594 637.187C40.3294 617.607 30.5094 594.626 23.0994 571.456C7.98937 524.246 1.30937 473.316 0.139365 423.836C-0.352635 403.081 0.459365 382.293 2.55437 361.638C7.35037 358.54 12.3004 355.683 17.3964 353.091C21.9854 350.756 17.9424 343.852 13.3584 346.183C10.0594 347.862 6.84037 349.667 3.67837 351.562C9.43737 304.375 21.9524 258.027 41.1794 214.506C51.2034 191.807 62.7954 168.746 77.6624 148.408C83.0984 148.82 88.4794 149.647 93.8014 151.319C98.7244 152.866 100.831 145.145 95.9284 143.605C91.7874 142.304 87.5924 141.474 83.3624 140.941C87.7344 135.486 92.3664 130.261 97.3194 125.357C119.199 103.697 146.819 89.1974 175.719 79.2364C205.939 68.8264 237.528 63.0864 268.959 57.7674C297.679 52.9064 325.028 51.3464 342.299 24.1364C343.379 22.4374 345.829 21.5464 347.629 22.7364C348.409 23.2564 349.189 23.7774 349.969 24.3064C350.009 24.1974 350.049 24.0764 350.089 23.9664C352.589 16.3164 353.139 8.53643 355.019 0.796428C355.309 -0.353572 356.829 -0.173572 357.189 0.796428C360.189 8.90643 359.429 19.2264 356.448 28.8264C364.669 34.6664 372.778 40.6974 381.569 45.6364C394.889 53.1264 417.839 57.0464 432.809 59.6564C447.609 62.2364 463.119 63.7564 478.169 63.0364C483.999 62.7564 489.829 61.9564 495.389 60.1174C498.309 59.1464 501.089 57.8364 503.669 56.1364C504.219 55.7674 504.749 55.3864 505.269 54.9864C504.448 48.7564 504.209 42.3464 504.459 36.0764C504.719 29.3964 505.009 22.9474 508.409 17.1564C508.539 16.9264 508.829 17.0174 508.919 17.2264C512.179 24.9474 512.399 33.9764 513.238 42.6264C521.329 40.1874 530.009 42.9064 535.179 50.0964C538.929 55.3164 539.719 61.3764 542.259 67.1074C542.988 68.7774 546.179 72.1974 546.229 73.8164C547.089 74.5564 547.009 74.6974 545.988 74.2264C545.559 74.0864 545.299 74.0064 545.209 73.9864C545.329 74.0364 545.589 74.1264 546.019 74.2774C547.939 75.2464 549.189 75.7564 550.799 77.1264C552.979 78.9964 553.829 82.1764 553.539 85.0174C557.559 86.9164 561.528 89.0274 565.549 90.6664C573.019 93.7164 580.439 96.7264 587.769 100.117C603.539 107.396 618.988 115.357 634.079 123.966C638.105 126.264 642.232 128.574 646.277 131.032C642.774 133.579 639.46 136.398 636.355 139.45C632.677 143.064 638.335 148.72 642.012 145.107C645.506 141.673 649.325 138.433 653.44 135.666C660.224 140.379 666.414 145.817 670.999 152.767C675.019 158.867 677.549 165.836 680.159 172.596C682.889 179.697 686.039 185.976 690.318 192.256C690.409 192.396 690.499 192.527 690.568 192.666C691.179 192.697 691.778 192.736 692.389 192.767ZM398.707 82.9524C402.379 85.4604 405.596 88.5074 408.733 91.6424C412.38 95.2874 406.722 100.943 403.075 97.2984C400.432 94.6564 397.766 91.9744 394.669 89.8604C392.88 88.6384 392.077 86.3654 393.234 84.3874C394.271 82.6154 396.922 81.7344 398.707 82.9524ZM204.216 104.087C209.281 103.232 207.133 95.5224 202.089 96.3724C195.806 97.4334 189.618 98.6754 183.657 100.981C178.906 102.819 180.971 110.557 185.784 108.695C191.744 106.389 197.932 105.148 204.216 104.087ZM562.86 108.296C567.161 105.429 571.162 112.362 566.899 115.204C563.443 117.507 559.986 119.812 556.53 122.116C552.231 124.982 548.23 118.05 552.492 115.208L562.86 108.296ZM367.799 153.972C372.863 154.909 370.705 162.618 365.673 161.687C360.316 160.696 354.887 160.68 349.456 160.677C344.3 160.675 344.309 152.675 349.456 152.677C355.626 152.68 361.717 152.847 367.799 153.972ZM117.816 187.38C122.563 189.242 120.484 196.976 115.689 195.095C110.371 193.009 104.879 191.421 99.5614 189.335C94.8154 187.473 96.8934 179.74 101.688 181.62C107.006 183.706 112.498 185.294 117.816 187.38ZM258.36 200.855C263.319 199.495 261.213 191.776 256.233 193.14C247.509 195.532 238.525 196.773 229.736 198.901C224.735 200.111 226.854 207.827 231.863 206.615C240.652 204.488 249.635 203.245 258.36 200.855ZM660.469 324.886C676.869 317.077 695.019 312.767 713.149 311.846C713.238 311.506 713.379 311.166 713.568 310.827C732.249 277.327 748.749 242.617 763.629 207.267C752.639 206.447 741.659 204.736 730.679 203.687C718.269 202.496 705.829 201.527 693.379 200.786C690.789 200.626 688.209 200.486 685.619 200.346C677.059 199.896 668.499 199.556 659.929 199.316C658.806 199.286 657.681 199.252 656.556 199.219C651.841 199.079 647.113 198.938 642.399 198.986C639.659 199.017 637.519 199.277 635.698 201.486C634.559 202.857 633.988 205.017 632.369 205.947C632.189 206.046 631.869 206.236 631.559 206.406C631.289 206.687 630.999 206.937 630.769 207.236C629.589 208.746 628.549 210.406 627.579 212.066C624.769 216.906 622.219 221.937 619.689 226.926C615.229 235.726 611.238 244.786 606.579 253.486C602.269 261.517 597.759 269.536 593.019 277.316C591.988 278.996 583.429 292.077 578.419 298.857C582.389 299.027 586.289 299.536 589.899 300.646C591.399 297.216 593.299 294.006 594.859 290.607C596.389 287.256 597.379 283.396 599.429 280.346C600.839 278.256 603.809 279.617 603.379 282.006C602.698 285.756 600.229 289.376 598.159 292.536C596.149 295.607 594.049 298.626 591.389 301.146C591.519 301.187 591.659 301.236 591.789 301.286C600.929 304.736 606.818 314.416 612.528 321.836C616.559 327.077 644.149 364.676 624.889 365.796C619.969 366.086 619.919 358.176 624.869 358.107C624.023 358.107 624.002 357.545 623.976 356.839C623.965 356.543 623.953 356.222 623.879 355.906C623.629 354.846 623.089 353.687 622.679 352.666C621.509 349.777 620.119 346.976 618.619 344.256C616.119 339.716 613.238 335.386 610.189 331.197C606.969 326.777 603.539 322.527 600.089 318.286C596.479 313.867 593.119 309.496 587.369 307.916C583.488 306.846 579.259 306.476 574.939 306.447C570.059 306.423 565.082 306.852 560.407 307.255C559.143 307.364 557.901 307.471 556.689 307.566C546.269 308.396 535.789 309.857 525.619 312.296C516.919 314.376 509.889 318.376 503.969 325.107C498.409 331.416 494.319 338.886 490.069 346.086C479.929 363.267 466.329 377.996 450.059 388.786C449.519 389.966 448.619 391.017 447.329 391.806C447.349 391.827 447.359 391.846 447.369 391.867C447.019 392.017 446.679 392.166 446.329 392.327C446.299 392.336 446.269 392.357 446.238 392.367C434.948 397.327 423.749 402.146 413.089 408.437C412.939 409.636 412.738 410.836 412.639 411.956C412.259 416.406 411.659 420.836 411.278 425.286C410.509 434.197 410.009 443.187 410.278 452.136C410.569 461.536 411.769 470.857 413.988 480.006C414.929 483.876 416.169 487.626 417.399 491.416C423.369 486.777 430.809 483.256 437.539 480.146C444.719 476.826 452.149 474.107 460.009 472.956C468.219 471.756 476.159 472.666 484.309 473.816C484.873 473.896 485.44 473.978 486.011 474.06C492.839 475.045 500.166 476.102 506.819 474.006C518.889 470.197 523.219 455.996 531.849 447.937C535.959 444.107 540.879 441.426 546.519 440.857C547.966 440.707 549.447 440.744 550.931 440.782C553.694 440.852 556.462 440.922 559.019 439.777C562.769 438.086 564.929 434.836 566.049 431.006C566.488 429.536 567.519 428.386 568.818 427.767C566.339 426.896 564.709 425.107 562.549 423.386C559.799 421.197 556.979 419.077 554.089 417.056C551.448 415.206 548.738 413.447 546.068 411.646C545.609 411.336 545.025 410.859 544.37 410.325C542.392 408.711 539.775 406.576 538.039 406.937C537.818 406.976 537.539 406.786 537.629 406.527C540.339 399.256 570.738 418.836 573.059 423.796C573.679 425.136 573.339 426.586 572.419 427.426C578.278 428.937 582.789 423.246 584.068 418.107C585.565 412.125 584.436 405.292 583.428 399.188C583.343 398.679 583.26 398.174 583.179 397.676C583.068 396.976 583.738 396.406 584.309 396.566L584.528 396.066C577.519 393.006 569.988 390.896 562.799 388.396C558.149 386.777 553.499 385.156 548.839 383.536C545.309 382.306 541.669 381.426 539.219 378.437C537.609 376.476 537.939 373.056 540.809 372.406C544.778 371.512 548.391 372.839 552.074 374.192C552.799 374.458 553.526 374.725 554.259 374.976C558.619 376.456 562.969 377.947 567.318 379.437C574.999 382.056 582.929 384.306 590.339 387.636C596.649 390.466 601.909 394.646 604.829 401.046C605.919 403.456 607.159 409.966 610.278 410.666C613.969 411.496 614.999 403.456 615.309 400.796C617.179 384.577 608.068 365.937 593.349 358.806C585.759 355.136 577.359 353.027 569.238 350.926C562.469 349.176 555.549 347.767 548.609 346.656C545.689 346.176 542.769 345.767 539.849 345.396C539.259 345.327 539.229 344.486 539.849 344.466C543.448 344.306 547.089 344.256 550.738 344.336C560.749 339.246 572.639 335.216 583.709 334.566C593.818 333.966 602.769 342.386 604.889 352.077C605.399 354.396 604.309 356.077 602.729 356.786C611.659 362.777 617.329 371.687 621.009 382.566C621.189 383.107 621.369 383.676 621.549 384.286C623.709 378.916 628.519 374.156 633.198 371.066C638.318 367.687 644.079 364.406 650.129 361.676C649.639 361.486 649.169 361.226 648.729 360.886C646.149 358.876 646.059 355.086 645.698 352.117C645.219 348.197 644.999 344.187 645.899 340.306C647.679 332.706 653.759 328.086 660.469 324.886ZM514.735 224.646C514.853 219.921 516.722 215.846 518.798 211.689C521.09 207.095 514.192 203.038 511.89 207.651C509.169 213.101 506.889 218.463 506.736 224.646C506.609 229.796 514.609 229.793 514.735 224.646ZM364.03 286.943C363.303 291.978 371.011 294.153 371.745 289.069C372.869 281.288 374.242 273.609 376.353 266.029C377.736 261.062 370.021 258.942 368.639 263.902C366.528 271.482 365.155 279.161 364.03 286.943ZM89.3904 281.095C84.9524 283.701 88.9734 290.618 93.4274 288.003C98.6454 284.941 104.145 282.587 109.752 280.343C114.473 278.452 112.413 270.712 107.625 272.628C101.386 275.126 95.1974 277.687 89.3904 281.095ZM229.934 317.955C225.309 315.681 229.367 308.785 233.971 311.048C238.823 313.433 243.85 315.277 249.144 316.404C254.185 317.478 252.038 325.189 247.017 324.119C241.059 322.849 235.39 320.638 229.934 317.955ZM732.629 342.386C732.709 342.216 732.869 342.126 733.039 342.107C731.999 335.077 730.259 327.156 727.099 320.996C725.328 317.551 722.578 317.685 719.235 317.848C718.783 317.87 718.321 317.892 717.849 317.906C714.469 318.017 711.109 318.236 707.749 318.586C693.169 320.107 678.519 323.906 665.159 329.976C659.159 332.706 653.229 336.046 652.149 343.156C651.659 346.327 651.988 349.646 652.439 352.806C652.579 353.767 652.729 355.226 653.149 355.426C653.651 355.662 656.297 354.911 657.866 354.466C658.363 354.325 658.751 354.215 658.929 354.176C666.299 352.586 673.679 350.996 681.049 349.396C687.859 347.926 695.149 345.447 702.119 345.296C704.778 345.236 706.249 349.476 703.559 350.617C694.579 354.466 683.679 355.496 674.139 357.596L669.219 358.676C659.979 362.976 650.519 366.706 641.629 371.896C636.499 374.886 630.719 378.187 627.659 383.466C624.929 388.166 625.249 396.077 631.579 397.577C633.539 398.036 635.709 397.996 637.948 397.687C642.488 397.056 647.309 395.306 651.169 394.437L670.488 390.056C683.689 387.066 696.889 384.077 710.089 381.086C713.499 380.316 714.948 385.556 711.539 386.336C694.149 390.286 676.769 394.246 659.389 398.206C652.349 399.806 645.179 401.986 637.988 402.966C631.568 407.086 625.339 411.066 620.339 417.027C619.969 417.456 619.609 417.906 619.259 418.357C616.429 422.027 617.179 426.437 622.329 426.596C622.488 426.607 622.649 426.607 622.809 426.607C625.439 426.577 628.129 425.607 630.639 424.986C635.948 423.656 641.289 422.476 646.669 421.437C668.129 417.246 689.988 415.357 711.738 413.367C715.528 413.017 715.488 418.916 711.738 419.277C696.599 420.706 681.439 422.126 666.379 424.277C659.049 425.327 651.729 426.506 644.459 427.906C640.679 428.636 636.889 429.676 633.089 430.566C633.119 430.666 633.119 430.777 633.039 430.896C629.009 436.916 625.439 446.906 631.809 452.867C634.882 455.735 639.146 455.275 642.983 454.861L643.309 454.826C647.799 454.336 652.289 453.716 656.769 453.086C664.639 451.976 672.488 450.716 680.318 449.357C684.399 448.656 688.469 447.906 692.528 447.117C693.069 447.013 693.573 446.904 694.05 446.801C696.509 446.268 698.261 445.888 700.799 447.136C701.929 447.687 701.889 449.187 701.169 450.006C698.109 453.517 691.929 453.316 687.549 454.096C682.219 455.056 676.879 455.956 671.528 456.746C661.369 458.256 651.049 459.937 640.789 460.536C634.409 460.896 628.809 458.536 625.939 453.346C625.999 454.806 626.059 456.277 626.119 457.736C626.339 462.986 626.389 468.226 626.488 473.476C626.498 473.955 626.469 474.518 626.437 475.125L626.437 475.128L626.437 475.132C626.362 476.59 626.274 478.295 626.669 479.656C634.639 479.906 642.619 479.986 650.599 479.947C655.139 479.926 659.689 479.836 664.229 479.626C664.969 478.437 666.209 477.576 667.839 477.607C681.838 477.881 690.311 468.602 698.925 459.17C700.348 457.613 701.774 456.051 703.229 454.527C712.609 444.697 723.519 435.017 735.709 428.706C737.528 424.486 740.269 420.496 742.389 416.506L742.519 416.262C744.789 411.974 747.882 406.134 745.919 401.277C744.339 397.376 739.729 395.796 738.079 391.827C736.789 388.726 737.389 385.586 738.999 382.726C740.729 379.656 744.778 376.536 744.948 372.816C745.097 369.411 741.743 366.794 738.838 364.529C737.82 363.735 736.857 362.983 736.119 362.256C730.698 356.886 729.309 349.236 732.629 342.386ZM594.329 352.426C583.259 348.086 571.339 345.687 559.359 344.756C565.809 343.626 572.278 342.536 578.799 341.976C583.349 341.586 587.568 341.626 590.988 345.077C593.269 347.376 594.339 350.336 595.839 353.056C595.349 352.836 594.839 352.626 594.329 352.426ZM134.274 502.026C126.82 504.212 118.126 506.222 113.044 512.581C112.796 512.892 112.379 512.493 112.528 512.183C119.034 498.695 137.692 493.964 150.61 489.239C159.747 485.896 169.122 483.124 178.576 480.648C177.93 473.268 178.946 465.526 179.942 457.934C180.402 454.431 180.857 450.961 181.143 447.572C182.11 436.114 182.897 424.626 183.301 413.132C183.714 401.407 183.814 389.603 183.428 377.875C183.044 366.19 181.527 354.648 180.863 343.002C180.799 341.876 182.367 341.822 182.705 342.753C186.631 353.56 188.308 365.531 189.586 376.926C190.902 388.665 191.339 400.37 191.171 412.177C190.997 424.317 190.291 436.428 189.322 448.529C188.863 454.265 188.33 459.993 187.827 465.725C187.443 470.099 187.265 474.438 186.373 478.673C192.075 477.274 197.79 475.95 203.487 474.663C221.653 470.564 239.895 466.76 257.985 462.327C266.865 460.152 275.618 457.546 284.458 455.232C292.782 453.053 301.568 450.411 310.114 449.439C313.164 449.091 313.552 453.263 311.533 454.679C304.587 459.556 295.362 462.952 287.339 465.682C279.287 468.421 270.917 470.392 262.664 472.421C245.453 476.654 228.079 480.115 210.731 483.72C193.407 487.321 176.05 490.895 158.921 495.338C150.672 497.478 142.451 499.626 134.274 502.026ZM343.696 380.709C338.547 380.6 338.546 372.6 343.696 372.709C348.356 372.808 352.937 374.034 357.432 375.156C362.432 376.405 360.3 384.118 355.305 382.87C351.505 381.921 347.636 380.793 343.696 380.709ZM630.589 402.916C628.189 404.017 625.859 405.386 623.689 406.947C624.049 404.517 624.139 401.956 624.039 399.386C625.829 401.306 628.119 402.406 630.589 402.916ZM85.5604 424.693C80.1264 422.538 74.3634 420.607 70.0454 416.505C66.3134 412.96 60.6464 418.607 64.3884 422.161C69.7674 427.271 76.6634 429.722 83.4334 432.407C88.2204 434.304 90.2984 426.57 85.5604 424.693ZM631.899 430.836C629.439 431.386 626.979 431.857 624.519 432.096C624.459 432.107 624.389 432.107 624.329 432.107C624.698 434.836 624.979 437.577 625.198 440.327C626.609 436.746 629.149 433.517 631.899 430.836ZM714.485 565.451C711.574 555.383 712.366 544.633 710.372 534.364C709.343 529.066 707.938 523.81 706.404 518.638C705.166 514.46 703.101 510.016 702.867 505.656C702.853 505.365 703.196 505.197 703.432 505.331C707.539 507.683 710.693 512.768 713.035 516.758C715.839 521.533 717.98 526.533 719.707 531.79C723.149 542.263 725.975 554.896 721.536 565.451C720.215 568.593 715.575 569.222 714.485 565.451ZM246.301 513.273C242.655 509.627 236.997 515.283 240.644 518.929L251.012 529.297C254.657 532.943 260.316 527.287 256.669 523.64L246.301 513.273ZM600.68 515.701C592.392 518.167 584.604 521.896 576.685 525.32C571.972 527.357 576.041 534.251 580.723 532.227C588.015 529.075 595.174 525.687 602.807 523.414C607.73 521.949 605.633 514.226 600.68 515.701ZM493.055 522.924C491.118 518.146 498.861 516.087 500.769 520.798C502.966 526.22 505.484 531.503 507.681 536.925C509.616 541.703 501.875 543.763 499.967 539.052C497.77 533.63 495.251 528.347 493.055 522.924ZM327.97 567.763C329.758 566.945 331.573 566.17 333.342 565.309C336.087 563.97 337.351 562.488 339.753 560.755C342.67 558.651 341.025 553.819 337.225 554.757C334.895 555.333 333.178 555.142 330.919 556.077C329.219 556.781 327.573 557.63 325.91 558.417C322.06 560.239 318.21 562.064 314.362 563.892C307.259 567.267 300.16 570.652 293.068 574.048C278.005 581.259 263.092 588.786 248.16 596.263C233.519 603.594 218.881 610.934 204.271 618.327C196.967 622.025 189.724 625.827 182.49 629.66C179.02 631.497 175.534 633.308 172.112 635.234C168.762 637.118 164.696 638.804 162.147 641.703C161.949 641.928 162.065 642.367 162.412 642.344C169.159 641.886 176.756 637.03 182.902 634.251C190.09 631.001 197.292 627.786 204.44 624.449C219.612 617.363 234.803 610.313 250.034 603.355C264.97 596.533 279.985 589.879 294.885 582.982C302.328 579.537 309.778 576.104 317.232 572.682C320.81 571.039 324.389 569.4 327.97 567.763ZM77.2994 585.218C72.8334 587.808 68.8094 580.892 73.2624 578.311C79.5164 574.686 86.3654 572.267 92.8464 569.095C97.4574 566.837 101.507 573.74 96.8834 576.003C90.4034 579.175 83.5534 581.593 77.2994 585.218ZM405.037 619.779C407.069 620.995 409.22 620.063 410.51 618.343C413.916 613.804 417.413 609.375 421.404 605.329C425.024 601.66 419.37 595.999 415.747 599.672C411.278 604.203 407.415 609.224 403.602 614.306C402.296 616.047 403.335 618.759 405.037 619.779ZM600.877 641.667C596.539 638.64 593.378 634.408 589.699 630.673C586.081 627 591.737 621.343 595.356 625.017C598.495 628.202 601.22 632.182 604.914 634.759C606.692 635.998 607.515 638.239 606.35 640.232C605.32 641.991 602.65 642.904 600.877 641.667ZM279.935 647.34C279.114 645.345 280.833 642.919 282.729 642.419C285 641.821 286.821 643.201 287.65 645.213C289.843 650.548 292.967 655.443 296.988 659.577C300.582 663.271 294.928 668.93 291.331 665.234C286.292 660.052 282.672 653.996 279.935 647.34Z" transform="translate(35.00024 6.999272)" fill="#000000" fill-rule="evenodd" stroke="none"></path></g><g transform="translate(225 0)"><g><g><path d="M340.529 155.003C338.376 136.088 341.162 96.5517 341.348 94.1497C342.529 78.9648 335.414 19.0018 321.964 24.5268C299.401 6.66576 269.351 2.72176 241.251 0.837757C182.883 -3.07624 120.791 5.90876 75.7204 45.1888C53.4316 65.5878 31.7323 95.2567 33.4765 126.149C13.2256 155.431 -15.3236 195.598 9.90814 229.831C18.4849 240.768 32.1161 244.841 42.8905 253.124C64.5622 270.604 78.1586 295.69 100.036 313.066C157.996 365.149 256.413 376.029 313.359 316.789C357.394 273.885 350.274 209.699 342.529 155.003C337.321 118.23 344.728 191.904 340.529 155.003Z" transform="translate(65.0005 149)" fill="#FFFFFF" stroke="none"></path><path d="M227.86 0.104592C211.919 -0.485408 195.89 1.47459 180.28 4.62459C149.299 10.8646 117.57 21.0746 89.509 35.7146C77.727 41.8646 66.8569 49.4596 57.054 58.2086C48.193 53.9716 34.213 53.6276 31.373 63.3436C30.558 66.1326 30.964 68.6606 32.134 70.8226C31.793 71.0166 31.456 71.2246 31.126 71.4456C28.8908 72.9424 27.6975 74.0315 26.3137 75.4062L25.221 76.5016C21.761 79.9726 21.434 86.3956 25.221 89.8226L25.739 90.2906L26.0576 90.5686C26.7029 91.1105 27.3954 91.5689 28.118 91.9486C14.847 112.287 5.83895 135.465 2.10995 159.685C-0.0810489 173.905 -0.720049 188.125 0.929951 202.435C1.72995 209.425 2.92995 216.885 5.37895 223.495C6.56995 226.725 8.24895 229.865 9.75895 232.965C11.4 236.345 14.089 238.815 16.299 241.835C16.539 242.145 16.919 242.305 17.289 242.315C16.62 243.695 16.009 245.095 15.44 246.485C12.169 254.475 9.64995 263.085 8.18995 271.595C5.43995 287.645 7.11995 305.695 19.339 317.705C24.209 322.485 31.749 326.315 39.16 327.335C36.789 329.775 34.879 332.675 33.35 336.015C30.49 342.245 35.259 350.675 42.839 348.355C44.28 347.915 45.709 347.355 47.11 346.735C49.289 351.065 53.95 353.995 58.95 353.245C61.86 352.805 63.959 351.675 65.4 350.085C69.009 358.065 73.799 365.315 79.8699 371.715C86.2889 378.495 93.379 384.605 99.7799 391.405C105.999 398.005 109.69 406.625 117.02 412.065C119.299 413.755 122.79 411.955 123.43 409.455C125.915 399.726 119.222 391.626 112.872 384.935L112.07 384.095C105.259 377.015 97.39 371.105 90.14 364.505C82.61 357.645 76.549 350.365 71.089 341.765C70.6174 341.025 70.1472 340.27 69.6753 339.507L67.53 336.025C67.419 335.515 67.299 335.015 67.16 334.525C67.049 332.555 66.39 330.685 65.1199 328.965C63.549 326.835 61.45 325.225 59.11 324.475C58.32 323.635 57.499 322.835 56.64 322.095C57.709 320.925 58.65 319.545 59.45 317.945C60.93 314.965 59.2 310.225 55.24 310.615C54.0504 310.729 52.8818 310.675 51.7142 310.621C50.4369 310.562 49.1608 310.503 47.86 310.665C47.5484 310.704 47.237 310.745 46.9256 310.786C44.7888 311.069 42.6557 311.351 40.499 311.055C36.07 310.425 32.1 308.025 29.22 304.665C22.009 296.265 21.249 284.185 22.759 273.705C23.4263 269.026 24.5669 264.428 25.7788 259.855L27.6525 252.851C28.7204 248.937 30.007 244.881 32.52 241.695C40.4061 231.694 53.9178 239.542 62.0054 245.562L62.74 246.115C62.81 246.165 62.87 246.185 62.94 246.185C63.37 246.885 63.83 247.575 64.31 248.235C66.959 251.815 70.169 254.995 73.4799 257.995L74.1553 258.611C74.6084 259.02 75.066 259.425 75.52 259.825C79.39 263.235 84.629 260.725 85.14 255.845C86.089 246.645 85.83 237.345 86.419 228.105C87.0089 218.855 88.07 209.635 89.6499 200.505C91.2299 191.385 93.27 182.355 95.759 173.455C97.009 168.995 98.379 164.585 99.839 160.195C100.95 156.815 101.78 151.335 104.709 148.985C107.36 146.845 112.35 146.485 115.6 145.795C120.14 144.825 124.709 143.965 129.259 142.995C137.77 141.165 146.27 139.175 154.65 136.815C162.95 134.475 171.18 131.715 179.15 128.395C176.86 132.235 174.589 136.085 172.339 139.945C169.259 145.235 173.299 150.885 178.89 151.355C184.629 151.835 190.44 151.405 196.039 150.045C197.23 149.755 198.32 149.425 199.33 149.035C205.479 148.594 211.755 147.191 217.533 145.767L220.23 145.095C231.209 142.335 241.759 138.565 252.16 134.115C253.325 133.617 254.491 133.109 255.657 132.592C259.971 131.29 264.22 129.777 268.386 128.056C283.831 130.393 299.585 129.487 314.759 125.755C321.31 124.145 328.43 122.125 335.2 119.325C338.57 125.075 343.74 129.735 349.509 133.115C350.14 138.105 350.49 143.145 350.72 148.145C351.459 164.085 352.299 180.025 353.169 195.955L353.449 201.113C355.094 232.07 356.102 263.076 356.339 294.065C356.56 322.305 354.83 350.185 339.53 374.745C326.64 395.465 306.53 411.955 283.18 419.355C268.839 423.895 253.64 425.355 238.669 423.905C231.36 423.195 224.12 421.525 217.129 419.285L216.124 418.968C209.105 416.802 202.421 415.732 195.1 414.845C190.259 414.255 189.089 420.535 191.52 423.485C196.66 429.705 202.15 433.855 209.789 436.675C216.69 439.215 224.009 440.825 231.28 441.875C246.28 444.035 261.41 443.795 276.23 440.405C303.73 434.125 328.039 417.605 344.97 395.195C363.56 370.585 369.549 341.165 369.94 310.855C370.361 278.421 368.752 245.831 366.61 213.451L366.16 206.755C365.2 192.745 364.18 178.685 362.589 164.705C365.22 164.965 367.98 164.145 370.22 161.895C374.584 157.531 375.617 150.814 376.136 144.748L376.27 143.075C376.69 137.485 375.839 131.765 374.31 126.395C372.202 119.041 368.668 112.849 363.676 107.664C370.362 100.458 373.963 90.2596 374.757 80.6316C375.33 73.6936 375.863 64.5746 368.207 61.3416C366.695 60.7026 365.13 60.4666 363.556 60.4996C363.96 58.0286 364.233 55.5276 364.386 52.9966C364.631 48.9726 360.502 44.5616 356.369 44.9776C355.113 45.1046 353.857 45.2396 352.601 45.3706C353.352 44.1696 354.106 42.9716 354.88 41.7856C358.134 36.8086 353.736 31.2596 348.597 30.8346C334.938 29.7056 321.418 26.9046 308.386 22.6616C295.294 18.3976 281.618 14.1066 269.184 8.17159C268.306 7.75259 267.338 8.06259 266.736 8.66659C256.273 1.69209 241.083 0.631691 229.089 0.152327L227.86 0.104592ZM50.9901 264.032C46.347 261.873 40.0585 258.949 35.2303 260.525C33.0202 261.245 32.3693 263.585 33.3693 265.305L33.2892 265.305L33.4965 265.636C34.4149 267.034 35.5933 267.982 36.8854 268.882L37.4893 269.295C35.8693 270.445 34.6292 272.105 34.0892 274.225C33.2202 277.595 34.6292 281.735 37.8293 283.425C39.1103 284.095 40.4992 284.465 41.9492 284.535C43.9947 284.625 45.7013 283.683 47.2494 282.505L47.7093 282.145C48.3903 281.605 48.9403 280.885 49.3792 280.105C53.1103 284.925 56.2493 290.615 62.8392 290.795C65.9893 290.885 69.5493 288.375 70.1992 285.185C70.2702 284.875 70.3293 284.565 70.3903 284.265C70.9993 281.275 70.5602 277.775 68.1102 275.635C63.1903 271.355 58.1103 267.305 52.1403 264.565C51.7701 264.395 51.3861 264.216 50.9901 264.032Z" transform="translate(48.00005 65.00051)" fill="#000000" fill-rule="evenodd" stroke="none"></path></g></g><g transform="translate(159 186)"><g><path d="M145.63 0.473197L144.193 0.179116C142.503 -0.15929 140.804 -0.0161244 139.311 0.591153C137.847 1.18684 136.572 2.2242 135.68 3.72083C134.495 5.71373 134.337 7.38618 134.887 9.59525C135.311 11.3022 136.242 12.5864 137.46 13.5139C138.744 14.4911 140.37 15.0612 142.06 15.2595C149.854 16.175 157.53 17.8896 164.992 20.3235C168.488 21.4643 171.788 23.0096 175.058 24.6132L177.877 26.002C180.477 27.2735 183.163 28.499 186.557 29.3885C186.824 29.4584 187.087 29.5243 187.349 29.5865C188.29 29.2909 188.45 28.9329 188.649 28.6733L188.73 28.5721C188.972 28.2679 189.271 27.8025 188.988 25.6306C181.733 10.5814 162.083 4.00922 146.583 0.675332L145.63 0.473197ZM43.5878 4.83023L45.4652 4.50163L46.4275 4.33853C52.0515 3.40866 58.7184 2.78671 62.6028 7.20123C64.7819 9.67723 65.5318 14.2792 62.6028 16.6492C58.7671 19.7539 54.6298 19.6513 50.2182 19.5419C48.7043 19.5044 47.1582 19.466 45.5808 19.5562C40.4928 19.8482 35.6028 20.6902 30.7018 22.0912C19.9498 25.1642 11.1888 30.7742 2.00585 36.9342C0.800849 37.7422 -0.429151 36.2012 0.145849 35.0742C5.44685 24.6912 15.7198 16.1622 26.0098 10.9632C31.5019 8.18823 37.5118 5.88623 43.5878 4.83023ZM52.2374 50.7155C50.6929 49.6018 48.9969 48.9999 47.2237 48.9999C45.4506 48.9999 43.7546 49.6018 42.2101 50.7155C40.69 51.8116 39.3138 53.4113 38.1676 55.4066C35.9987 59.1823 34.6427 64.3956 34.6427 70.1599C34.6427 75.9243 35.9987 81.1376 38.1676 84.9133C39.3138 86.9085 40.69 88.5083 42.2101 89.6044C43.7546 90.7181 45.4506 91.3199 47.2237 91.3199C48.9969 91.3199 50.6929 90.7181 52.2374 89.6044C53.7575 88.5083 55.1337 86.9085 56.2799 84.9133C58.4488 81.1376 59.8047 75.9243 59.8047 70.1599C59.8047 64.3956 58.4488 59.1823 56.2799 55.4066C55.1337 53.4113 53.7575 51.8116 52.2374 50.7155ZM159.464 48.9999C161.237 48.9999 162.933 49.6018 164.478 50.7155C165.998 51.8116 167.374 53.4113 168.52 55.4066C170.689 59.1823 172.045 64.3956 172.045 70.1599C172.045 75.9243 170.689 81.1376 168.52 84.9133C167.374 86.9085 165.998 88.5083 164.478 89.6044C162.933 90.7181 161.237 91.3199 159.464 91.3199C157.691 91.3199 155.995 90.7181 154.45 89.6044C152.93 88.5083 151.554 86.9085 150.408 84.9133C148.239 81.1376 146.883 75.9243 146.883 70.1599C146.883 64.3956 148.239 59.1823 150.408 55.4066C151.554 53.4113 152.93 51.8116 154.45 50.7155C155.995 49.6018 157.691 48.9999 159.464 48.9999Z" transform="translate(59.00005 52.00027)" fill="#000000" fill-rule="evenodd" stroke="none"></path></g></g><g transform="translate(123 338)"><g><path d="M276.67 82.0231C278.737 79.5551 285.109 75.4151 286.653 74.1321C289.701 71.6021 295.493 72.9491 295.189 77.6681L293.255 107.666C293.056 110.762 290.518 130.65 289.843 135.839C287.206 156.112 281.179 175.773 268.552 191.974C261.502 201.014 252.892 207.844 243.322 212.814C236.572 217.734 229.132 221.684 221.262 224.514C205.252 230.274 187.822 230.094 171.242 227.184C156.182 224.544 141.182 219.524 127.172 213.174C111.042 208.294 95.3216 202.064 80.3216 195.054C64.5716 187.694 47.6116 179.464 35.1316 167.074C23.1416 155.184 16.8616 139.054 12.8816 122.944C12.2716 120.484 11.7016 118.004 11.1716 115.514C10.6516 114.194 10.2216 112.774 9.88161 111.184C8.79161 106.134 7.80161 101.064 6.91161 95.9841C5.14161 85.9341 3.72161 75.8141 2.65161 65.6641C1.57161 55.3941 0.891612 45.0841 0.591612 34.7641C0.54156 33.006 0.435836 31.1613 0.327412 29.2696C-0.0840528 22.0905 -0.534392 14.2331 1.87161 7.85407C3.66161 3.11407 7.66161 0.104072 11.9916 0.00407165C14.3816 -0.0659284 16.8816 0.764072 19.1616 2.69407C24.6516 7.33407 47.3816 60.2241 56.0016 71.9741C64.8316 84.0041 74.8116 95.2941 85.8616 105.294C86.0516 105.404 86.2416 105.524 86.4216 105.644C101.412 101.864 114.892 94.4641 125.852 82.8841C135.512 72.6741 143.392 60.8341 154.822 52.4041C160.422 48.2741 166.902 45.3441 173.822 44.3941C178.977 43.691 184.101 44.1701 189.228 44.6497C193.509 45.0501 197.793 45.4507 202.102 45.1641C203.708 45.0594 205.295 44.9163 206.868 44.7745C214.012 44.1306 220.86 43.5134 227.802 46.6441C234.992 49.8741 240.502 55.7041 245.882 61.2741C253.452 69.1271 261.935 75.3901 271.464 79.8221C272.829 79.7921 274.168 80.2821 275.077 81.3981C275.605 81.6121 276.136 81.8201 276.67 82.0231ZM238.77 124.972C242.214 126.253 245.642 127.582 249.132 128.724C251.352 129.444 253.632 130.134 255.932 130.624C260.962 125.204 264.642 118.694 267.552 111.724C263.042 111.484 258.412 109.854 254.552 108.194C247.092 104.974 240.342 100.194 232.672 97.4641C216.512 91.7141 199.052 94.2441 182.962 98.8741C165.682 103.834 149.342 111.574 132.002 116.324C126.355 117.876 120.113 119.38 113.738 120.285C114.786 121.52 115.761 122.806 116.701 124.129C125.511 129.063 134.585 133.548 144.232 137.184C145.572 137.684 146.922 138.184 148.272 138.654C150.474 138.04 152.652 137.308 154.812 136.502C163.907 132.197 172.359 125.628 181.423 121.972C199.89 114.523 221.161 116.127 238.77 124.972Z" transform="translate(-0.9999123 -17.00057)" fill="#000000" fill-rule="evenodd" stroke="none"></path></g></g><g transform="translate(47 241)"><g><path d="M409.463 3.8448C410.287 3.9658 411.111 4.0948 411.934 4.2318C418.27 5.2808 419.246 15.2398 413.729 17.9668C409.483 20.0668 406.817 24.2488 407.954 29.0788C408.779 32.5828 407.27 35.3698 404.887 36.8078C404.153 59.4058 400.438 84.7238 382.858 101.261C342.399 128.036 302.322 95.3878 310.705 43.7638C310.105 43.3428 309.577 42.8078 309.189 42.1368C308.911 41.6868 308.672 41.2368 308.449 40.7878C307.565 40.0648 301.03 37.7038 292.541 38.8798C284.052 40.0568 281.355 44.0148 277.062 48.3008C276.399 49.5928 275.264 50.5688 273.479 50.9698C270.103 69.9788 266.632 91.0678 252.071 105.304C215.602 139.383 152.661 111.085 154.989 59.2428C142.316 57.0798 152.882 42.2078 132.833 38.8798C129.215 37.6678 125.792 35.3518 123.536 32.6958C93.5503 29.4738 64.0323 30.9178 35.0393 41.3338C33.2654 42.076 31.4106 42.7524 29.5642 43.4257C19.2827 47.175 9.2641 50.8284 14.9483 65.2098C14.7313 69.9788 8.89832 72.8158 5.46132 69.2928L5.45832 69.2958C5.45332 69.2898 5.45032 69.2828 5.44632 69.2768C-14.0668 34.2407 22.9785 28.378 51.445 23.8729C52.0721 23.7736 52.6952 23.675 53.3133 23.5768C68.6263 20.2758 84.2953 18.8808 99.9463 19.2088C101.76 19.2865 103.703 19.3157 105.697 19.3457C111.762 19.4369 118.302 19.5352 123.121 21.0268C123.147 21.0348 123.172 21.0408 123.197 21.0478C129.862 0.847801 268.445 -3.8812 276.461 29.6238C280.189 29.5282 283.582 29.8068 286.814 30.0721C292.712 30.5563 298.071 30.9962 303.94 29.0368C306.664 4.6888 372.671 -4.4282 401.203 1.9928C403.191 2.1778 405.182 2.5208 407.187 3.0298C408.065 3.1988 408.82 3.4798 409.463 3.8448ZM379.696 25.3631C380.723 23.6008 383.403 22.675 385.173 23.9221C389.215 26.7678 392.148 31.0002 392.344 36.066C392.544 41.2443 384.536 41.2182 384.337 36.066L384.321 35.8198C384.135 33.851 382.654 31.9296 381.133 30.8576L380.964 30.7337C379.306 29.4642 378.564 27.3036 379.696 25.3631ZM238.087 28.7229C233.065 27.6183 230.92 35.3611 235.958 36.4687C239.526 37.253 242.549 39.052 244.592 42.0998L244.807 42.4312C247.548 46.7931 254.48 42.7666 251.719 38.3765C248.614 33.4362 243.788 29.976 238.087 28.7229Z" transform="translate(-12.99972 8.999499)" fill="#000000" fill-rule="evenodd" stroke="none"></path></g></g></g></g></svg>