<?xml version="1.0" standalone="no"?>
<svg viewBox="-350 -150 1500 1500" style="width: 487.5px; height: 487.5px; justify-content: center; align-self: center; transform: scale(1, 1);" xmlns="http://www.w3.org/2000/svg"><g transform="rotate(0 493.7835159301758 604.8207015991211)"><g transform="translate(0 459)"><path d="M1102.99 305.357C1113.23 300.01 1123.24 294.201 1133.08 288.155C1140.01 284.008 1133.87 273.562 1126.76 277.336C1123.13 279.267 1119.51 281.217 1115.87 283.135C1118.73 280.672 1121.39 277.99 1123.76 275.067L1123.6 274.904C1132.76 266.693 1120.99 251.201 1110.57 257.946C1101.38 264.608 1092.1 271.406 1081.55 275.793C1059.7 285.059 1035.6 286.592 1012.14 286.86C1003.56 286.215 995.364 287.702 987.036 289.359C990.301 276.261 998.472 266.37 1002.81 253.684C1006 240.876 987.516 232.151 980.964 244.463C979.356 247.486 977.823 250.544 976.324 253.618C962.162 266.499 938.514 265.364 924.231 279.195C916.095 286.416 912.114 296.213 910.541 306.047C909.473 312.724 911.133 319.418 907.096 325.332C887.577 352.94 856.735 396.578 841.072 426.961C829.982 354.763 800.371 265.463 769.78 199.446C759.664 178.333 748.091 157.703 732.899 139.807C734.621 133.839 728.543 123.245 724.678 126.506C712.781 111.973 691.751 108.21 674.841 100.985C652.014 91.2244 633.075 70.9357 623.765 47.8762C611.803 3.96415 582.356 -1.61372 541.517 0.327016C502.433 0.277947 473.516 16.9946 464.988 56.7808C447.663 86.9784 406.757 81.9844 377.328 89.9786C355.76 94.9056 334.829 102.523 314.937 112.194C292.808 91.2034 213.553 179.298 206.349 201.97C210.59 202.792 214.805 203.781 218.982 204.987C222.702 206.063 221.14 211.682 217.388 210.782C212.719 209.661 208.02 208.889 203.299 208.353C203.155 208.804 203.029 209.253 202.935 209.697C202.405 209.661 201.876 209.616 201.346 209.58C202.521 210.191 203.652 210.901 204.754 211.817C207.418 214.029 203.95 218.298 201.119 216.535C198.452 214.54 194.959 214.855 191.76 214.185C191.57 220.763 168.097 213.404 164.451 211.224C148.246 209.197 131.575 211.372 116.447 203.557C96.3179 199.318 76.0379 194.63 56.1349 189.232C50.8659 191.286 45.9139 198.636 50.0989 204.03C52.4529 206.484 49.4269 210.492 46.4629 208.747C36.5219 202.896 28.8339 193.762 22.3159 183.922C19.2479 180.827 13.8019 181.493 9.67988 180.208C9.12888 181.199 8.80388 182.302 8.80888 183.434C-8.67612 186.312 3.79688 205.409 12.5869 211.359C7.92388 214.395 7.74688 220.341 8.15488 225.306C7.16688 227.074 6.83688 229.266 7.69688 231.248C10.9849 238.825 18.0959 245.206 23.5029 251.345C29.4729 258.124 34.7959 264.941 42.0599 270.437C69.7479 291.542 103.161 303.342 137.439 307.957C149.61 309.826 167.117 312.687 174.653 322.979C172.804 335.193 169.409 346.907 166.329 358.817C162.022 374.627 162.315 391.178 162.258 407.296C161.656 406.812 160.5 406.912 160.328 407.834C159.326 414.515 158.581 421.347 154.52 426.961C150.96 437.4 148.591 448.535 147.26 459.503C141.928 511.498 140.655 565.027 152.677 616.212C157.316 635.201 164.861 653.247 175.141 669.865C178.206 674.821 183.134 676.273 187.559 675.299C202.369 682.993 221.026 685.46 236.989 683.505C291.41 668.099 272.448 705.197 348.751 693.837C480.458 677.059 613.562 710.029 744.989 690.672C748.226 715.674 790.6 708.502 805.319 697.932C849.453 665.123 871.367 561.247 893.516 508.552C908.741 467.018 934.235 393.454 967.622 365.584C977.633 357.754 989.734 353.632 1001.84 350.304C1047.03 338.66 1092.39 327.648 1137.67 316.327C1145.34 314.437 1143.96 301.342 1135.75 302.182C1124.86 303.297 1113.92 304.306 1102.99 305.357Z" transform="translate(-86.00008 -22.00066)" fill="#FFFFFF" stroke="none"></path><path d="M99.7948 270.318C96.7348 269.938 93.7348 268.848 90.7548 267.988C86.2048 266.658 81.7448 265.108 77.3548 263.338C68.2948 259.709 59.5048 255.418 51.2648 250.168C37.9548 241.678 26.1948 230.798 17.3248 217.698L16.7159 216.785C11.652 209.071 2.31124 191.944 12.7848 186.088C6.03454 180.448 -0.345455 170.318 0.014545 162.498C0.524545 151.438 14.0845 151.589 21.0945 156.278C25.6845 159.348 29.1245 163.648 32.5745 167.879C36.3945 172.578 40.4745 177.058 44.7145 181.368C45.8395 182.508 46.9758 183.625 48.1317 184.725L49.2944 185.818C49.1145 185.388 48.9545 184.948 48.8145 184.497C46.4745 177.208 49.2645 167.718 56.5545 164.378C61.0158 162.333 65.6489 163.582 69.972 165.318L70.6345 165.588C76.4545 167.997 82.3445 170.128 88.4045 171.838C113.105 178.808 138.885 179.968 164.195 183.448C173.945 184.798 183.875 186.497 193.575 188.997C197.274 173.288 206.344 158.229 216.184 145.839C263.304 86.5676 341.014 66.9786 412.104 54.2986C415.495 53.6969 418.582 55.7589 421.295 57.5712C423.766 59.2224 425.927 60.666 427.725 59.6982C434.875 55.8582 441.165 50.4182 446.685 44.5082C458.455 31.8982 466.805 17.0682 476.615 3.01824C481.465 -3.92176 492.625 2.28824 488.125 9.73824L485.92 13.3792C476.843 28.2929 466.792 43.6624 453.775 55.2282C446.855 61.3682 439.175 66.2182 430.395 69.2472C423.745 71.5382 414.415 73.4682 407.135 71.2472L406.261 69.9746C406.55 70.4002 406.841 70.8246 407.135 71.2479C426.134 98.7778 449.974 122.078 475.094 144.068C500.45 166.252 527.803 186.117 555.321 205.54L557.614 207.158C602.444 174.459 640.314 131.808 666.884 83.0788C661.315 82.408 655.805 78.839 651.045 76.178C645.315 72.959 639.925 69.118 635.725 63.998C626.575 52.848 627.765 38.478 626.115 24.948C626.015 24.108 627.125 23.898 627.635 24.318C632.595 28.438 634.335 35.188 636.405 41.018C638.685 47.428 641.265 52.709 646.495 57.218C651.365 61.419 657.305 64.508 663.075 67.258C666.05 68.6691 680.822 72.2953 682.504 75.2985C708.025 69.3083 732.885 79.6583 751.795 97.1183C770.065 113.988 783.475 135.918 795.315 157.568C807.945 180.668 818.295 204.747 827.215 229.497C836.255 254.618 843.185 280.288 846.995 306.728C850.211 329.02 852.183 351.661 853.459 374.201L853.615 377.018C872.494 347.388 891.844 318.068 911.594 289.008C907.104 277.018 912.074 264.778 920.484 255.518C929.804 245.268 942.694 240.508 955.024 234.968L956.645 234.235C962.588 231.524 968.511 228.539 973.644 224.478C978.584 220.558 982.214 215.158 987.414 211.548C994.974 206.288 1008.69 207.408 1009.04 218.898C1009.22 225.209 1006.51 232.128 1004.03 237.798C1001.22 244.209 997.434 250.018 992.934 255.358C992.726 255.607 992.499 255.803 992.268 255.959L992.094 256.068C998.315 257.098 1004.58 257.928 1010.97 258.218C1023.86 258.808 1036.89 257.858 1049.51 255.138C1062.43 252.358 1074.95 247.839 1086.57 241.538C1096.5 236.158 1105.7 229.198 1116.98 227.558C1118.02 227.398 1119.07 227.298 1120.15 227.238C1121.95 227.138 1123.75 229.258 1123.04 231.037C1122.65 232.018 1122.24 232.988 1121.79 233.968C1117.89 242.558 1111.91 250.891 1104.45 257.216L1103.87 257.698C1106.5 256.788 1109.09 255.768 1111.64 254.618C1126.63 247.868 1140.23 237.668 1156.3 233.568C1157.06 233.368 1157.83 233.188 1158.6 233.018C1163.57 231.948 1166.19 237.348 1163.27 241.048C1162.8 241.648 1162.33 242.238 1161.84 242.828C1154.67 251.728 1146.76 259.988 1138.04 267.408C1135.05 269.948 1131.97 272.408 1128.83 274.759C1138.67 271.778 1148.37 268.248 1157.86 264.339C1161.63 262.788 1164.56 266.608 1164.96 269.748C1166.29 280.122 1154.95 287.666 1147.34 292.725L1147.02 292.938C1139.4 298.019 1131.01 301.879 1122.42 304.978C1105.91 310.947 1088.56 313.657 1071.24 316.086L1062.83 317.258C1029.53 321.914 994.755 327.48 970.864 353.389C957.474 367.908 948.414 385.948 940.124 403.698C931.844 421.429 924.574 439.629 917.674 457.929C910.524 476.868 904.294 496.158 897.674 515.288C891.594 532.853 884.332 550.194 877.139 567.359L876.004 570.068C860.734 606.549 842.494 640.908 817.074 671.368C812.884 676.398 806.114 669.259 809.984 664.278C836.574 629.998 855.074 589.549 870.344 549.198C877.294 530.839 883.114 512.038 889.794 493.578L893.769 482.612C899.077 467.993 904.43 453.393 910.014 438.889C917.084 420.538 924.854 402.408 933.744 384.868L934.688 383.021C943.391 366.1 953.732 349.423 967.964 336.618C993.582 313.559 1027.67 308.027 1060.63 303.646L1071 302.279C1084.93 300.428 1098.9 298.384 1112.45 294.658C1120.27 292.519 1127.91 289.778 1135.09 285.998C1137.95 284.498 1140.74 282.849 1143.44 281.049C1135.74 283.309 1127.93 285.158 1119.98 286.608C1116.09 287.318 1112.24 287.849 1108.4 288.219C1098.51 289.198 1088.7 289.158 1078.57 288.629C1077.71 288.578 1077.43 287.229 1078.35 287.059C1085.41 285.804 1092.47 284.235 1099.51 282.533L1101.61 282.018C1101.65 280.849 1102.11 279.608 1103.07 278.429C1106.57 274.169 1113.22 271.988 1117.83 268.978C1122.66 265.828 1127.34 262.429 1131.8 258.788C1135.88 255.459 1139.8 251.938 1143.57 248.258C1133.39 252.959 1123.74 258.988 1113.11 262.709C1104.66 265.678 1095.8 267.678 1086.86 268.388L1086.31 268.432L1085.75 268.468C1076.42 269.138 1067.03 268.868 1057.84 270.888C1056.81 271.118 1056.49 269.738 1057.41 269.348C1065.44 266.008 1073.79 264.718 1082.23 263.158C1082.41 262.498 1082.87 261.908 1083.67 261.528L1085.83 260.497C1092.26 257.409 1098.26 254.291 1103.6 249.278C1108.32 244.848 1112.25 239.669 1115.2 233.928C1103.39 236.518 1093.02 245.468 1082.28 250.498C1070.58 255.988 1058.2 259.928 1045.48 262.169L1044.04 262.417C1020.26 266.382 991.68 265.877 970.385 253.518C969.705 253.118 970.195 252.209 970.895 252.318C976.935 253.308 982.915 254.478 988.895 255.518C987.724 254.448 987.204 252.528 988.554 250.988C993.925 244.833 998.173 237.798 1000.89 230.1L1001.41 228.595C1001.46 228.431 1001.52 228.262 1001.58 228.09C1002.84 224.519 1004.67 219.331 1002.61 216.258C1000.55 213.188 995.704 213.608 992.804 214.908C986.774 217.628 982.764 224.419 977.684 228.518C972.144 232.998 965.844 236.318 959.394 239.288L958.032 239.907C946.876 244.925 934.956 249.15 926.184 258.008C921.464 262.768 917.404 268.718 916.044 275.388C915.424 278.448 915.424 281.598 916.244 284.628C916.439 285.339 916.698 285.968 916.944 286.566C917.518 287.96 918.02 289.182 917.474 290.868C916.454 293.978 912.844 297.698 910.984 300.468C908.824 303.669 906.674 306.878 904.524 310.088C900.234 316.508 895.964 322.948 891.694 329.378C883.154 342.258 874.704 355.198 866.324 368.178C863.598 372.405 860.88 376.636 858.171 380.871L854.115 387.228L854.04 387.346L854.115 387.228L854.155 388.178C854.305 391.548 852.285 393.448 849.835 393.938L848.315 396.327C848.445 396.858 848.435 397.418 848.265 397.907C847.641 399.683 846.474 400.897 845.023 401.777L844.764 401.928C823.424 435.658 802.424 469.608 781.214 503.419C780.084 513.738 779.024 524.068 778.104 534.398C776.014 557.778 774.584 581.219 774.124 604.688C773.964 612.986 774.406 621.321 774.847 629.634C775.01 632.703 775.172 635.768 775.304 638.828C775.544 644.245 775.873 649.656 776.302 655.064L776.617 658.898C777.04 664.167 777.279 669.397 775.384 674.419C773.704 678.828 768.584 679.818 765.554 676.459C726.025 674.868 686.465 673.658 646.905 672.908C576.095 671.548 505.255 671.758 434.435 673.128C398.865 673.818 363.285 674.788 327.725 675.988C310.205 676.568 292.675 677.388 275.145 677.628C265.7 677.757 250.835 674.318 250.073 663.692L250.055 663.368C248.875 663.688 247.655 663.948 246.405 664.138C245.848 664.224 245.314 664.199 244.82 664.084L244.575 664.019C232.232 667.78 217.024 663.539 204.447 660.031C202.677 659.538 200.959 659.059 199.309 658.619L198.205 658.328C185.435 654.998 175.175 650.238 166.805 639.658C152.155 621.129 147.155 596.248 144.555 573.318C142.115 551.738 141.975 529.759 144.945 508.219C143.195 490.669 144.905 472.559 146.895 455.108C147.875 446.478 149.025 437.858 150.405 429.278C151.175 424.488 152.185 419.748 153.215 415.018C153.626 413.128 153.968 411.093 154.49 409.126L154.725 408.288C153.125 408.498 151.375 408.148 149.685 407.219C145.665 405.009 144.495 400.538 144.425 396.259C144.22 384.277 145.534 371.978 146.812 360.016C146.91 359.098 147.008 358.182 147.105 357.269C148.475 344.469 150.355 331.618 152.815 318.978L153.451 315.719C155.315 306.264 157.448 296.503 161.205 287.618C147.095 285.219 133.025 282.669 119.335 278.328C112.655 276.198 106.075 273.549 99.7948 270.318ZM76.7444 254.219C77.4244 254.858 78.1144 255.498 78.8048 256.108C74.3249 254.328 69.9148 252.388 65.6049 250.188C52.9748 243.738 41.3048 235.448 31.6748 224.988C26.9248 219.838 22.7848 214.198 19.3548 208.088C17.2548 204.368 11.0448 191.928 18.5547 191.299C19.0947 191.248 19.7147 191.259 20.4147 191.349C26.9547 192.169 33.2147 197.719 38.8547 200.799C45.0847 204.209 51.5047 207.219 58.0747 209.898C63.9847 212.309 69.9948 214.568 76.0847 216.568L76.5197 216.712L76.9548 216.849C86.7048 220.038 96.6847 222.608 106.775 224.219C106.975 224.248 107.135 223.979 106.925 223.868C91.0747 215.959 74.0648 210.648 58.0447 203.118C49.9847 199.339 42.0747 195.299 34.5047 190.608C30.1447 187.908 24.9347 184.559 19.5547 184.419L19.0052 183.741C18.6867 183.353 18.3334 182.926 17.9534 182.467C12.6862 176.107 2.31046 163.578 9.12455 160.158C15.7195 156.844 23.3564 166.427 27.9968 172.251C28.8306 173.297 29.5677 174.222 30.1845 174.929L30.7569 175.58C42.2591 188.576 57.1065 199.56 73.4246 205.648C73.7945 205.778 73.9645 205.248 73.6845 205.049C72.6245 204.299 71.5745 203.549 70.5246 202.788L71.5406 203.19C72.8897 203.719 74.2145 204.216 75.4946 204.688C82.4345 207.258 89.5746 209.287 96.8245 210.718L96.9911 210.751C103.537 212.031 110.16 213.325 116.745 211.787C119.165 211.218 118.765 208.008 116.745 207.268C111.505 205.338 106.025 205.088 100.565 204.098C95.1046 203.108 89.7045 201.778 84.4146 200.098C75.6245 197.318 63.9445 193.738 58.1345 186.018C55.7645 182.868 54.8245 178.968 56.4045 175.218C58.6245 169.948 63.1845 170.918 67.6545 172.658L68.9836 173.175C78.73 176.936 88.4815 180.074 98.7545 182.188C129.335 188.488 162.465 187.908 192.855 196.098C203.485 198.948 213.785 202.878 223.515 208.548C237.105 216.458 248.835 227.488 256.915 240.878C257.245 247.528 257.535 254.028 258.495 260.638C259.207 265.557 260.041 270.453 260.903 275.344L262.465 284.148C265.095 299.108 268.265 313.988 271.205 328.898C277.085 358.728 282.985 388.568 287.325 418.668C295.645 476.278 297.465 535.218 282.795 591.997C277.135 613.938 269.475 635.678 252.605 650.609L252.595 650.618C251.951 650.867 251.311 651.118 250.673 651.367C243.376 654.223 236.409 656.95 228.225 656.059C218.635 655.009 209.035 651.538 199.735 649.089L199.172 648.939C188.892 646.171 180.851 642.352 174.065 633.759C160.759 616.919 155.849 593.448 153.297 572.524L153.115 570.998C150.525 548.868 150.415 526.068 153.945 504.038C159.225 471.059 171.055 439.658 181.365 408.028L181.973 406.163L182.921 403.221C192.481 373.386 200.96 342.17 198.915 310.778C199.595 309.998 199.955 308.899 199.775 307.469C199.455 305.028 198.815 302.689 197.865 300.519C197.535 298.179 195.725 296.669 195.725 296.669C193.845 293.939 191.355 291.618 188.265 289.889C185.085 288.109 180.275 286.618 176.055 286.969C172.265 285.769 160.824 282.575 160.824 282.575C141.037 277.273 120.89 272.806 102.884 263.209C100.224 261.799 97.6144 260.278 95.0645 258.618C83.9445 251.408 71.9445 240.509 67.7344 227.488L67.681 227.324C67.6242 227.152 67.5672 226.988 67.5127 226.832C67.0535 225.513 66.7759 224.715 68.3244 224.179C69.2345 223.853 70.5878 224.18 71.7215 224.511L73.657 225.082C77.1999 226.162 80.5245 227.737 83.7445 229.538C89.8145 232.929 95.4344 237.038 101.374 240.618C115.714 249.268 132.244 250.429 147.864 255.698C150.314 256.528 151.614 253.379 150.194 251.698C144.544 245.038 135.764 244.009 127.664 242.408L126.852 242.244C118.223 240.459 110.841 237.409 103.364 232.639C96.4645 228.238 89.8745 223.248 82.4044 219.818C80.6844 219.018 78.7544 218.179 76.7544 217.478C76.4644 217.379 76.1744 217.278 75.8845 217.188C71.4044 215.738 66.5644 215.139 62.5444 217.528C55.8158 221.522 59.3316 229.419 62.1948 234.963L63.1199 236.723C66.6353 243.228 71.383 249.147 76.7444 254.219ZM205.315 227.509C211.285 228.038 217.135 229.309 222.715 231.509L223.253 231.719C227.38 233.312 233.415 235.314 234.765 239.719C235.145 240.969 234.125 241.998 232.955 242.099C230.035 242.333 226.776 240.377 223.712 238.537C222.073 237.553 220.49 236.602 219.045 236.038C214.425 234.238 209.585 232.898 204.685 232.188C193.675 230.578 182.195 231.799 171.835 235.809C171.225 236.049 170.845 235.078 171.395 234.788C181.835 229.108 193.445 226.459 205.315 227.509ZM835.615 404.738C835.825 404.678 836.035 404.618 836.254 404.568C822.164 427.158 808.364 449.928 794.874 472.879C790.444 480.408 786.204 488.028 782.064 495.709L782.601 490.894C785.297 466.82 788.132 442.759 790.045 418.618C799.175 414.328 808.775 411.568 818.595 409.098C824.275 407.658 829.975 406.318 835.615 404.738ZM158.165 406.959C158.186 409.001 157.888 411.101 157.599 413.136C157.482 413.96 157.367 414.773 157.275 415.568C156.755 420.049 156.335 424.549 155.805 429.028C154.725 438.028 153.805 447.038 153.135 456.078C152.705 461.849 152.425 467.639 152.175 473.429C157.845 452.238 165.355 431.509 172.495 410.748C171.301 410.622 170.081 410.33 168.823 409.996L166.704 409.426C165.455 409.104 161.402 408.107 158.165 406.959Z" transform="translate(-88.75005 5.250063)" fill="#000000" fill-rule="evenodd" stroke="none"></path></g><g transform="translate(225 0)"><g><g><path d="M340.529 155.003C338.376 136.088 341.162 96.5517 341.348 94.1497C342.529 78.9648 335.414 19.0018 321.964 24.5268C299.401 6.66576 269.351 2.72176 241.251 0.837757C182.883 -3.07624 120.791 5.90876 75.7204 45.1888C53.4316 65.5878 31.7323 95.2567 33.4765 126.149C13.2256 155.431 -15.3236 195.598 9.90814 229.831C18.4849 240.768 32.1161 244.841 42.8905 253.124C64.5622 270.604 78.1586 295.69 100.036 313.066C157.996 365.149 256.413 376.029 313.359 316.789C357.394 273.885 350.274 209.699 342.529 155.003C337.321 118.23 344.728 191.904 340.529 155.003Z" transform="translate(65.0005 149)" fill="#FFFFFF" stroke="none"></path><path d="M227.86 0.104592C211.919 -0.485408 195.89 1.47459 180.28 4.62459C149.299 10.8646 117.57 21.0746 89.509 35.7146C77.727 41.8646 66.8569 49.4596 57.054 58.2086C48.193 53.9716 34.213 53.6276 31.373 63.3436C30.558 66.1326 30.964 68.6606 32.134 70.8226C31.793 71.0166 31.456 71.2246 31.126 71.4456C28.8908 72.9424 27.6975 74.0315 26.3137 75.4062L25.221 76.5016C21.761 79.9726 21.434 86.3956 25.221 89.8226L25.739 90.2906L26.0576 90.5686C26.7029 91.1105 27.3954 91.5689 28.118 91.9486C14.847 112.287 5.83895 135.465 2.10995 159.685C-0.0810489 173.905 -0.720049 188.125 0.929951 202.435C1.72995 209.425 2.92995 216.885 5.37895 223.495C6.56995 226.725 8.24895 229.865 9.75895 232.965C11.4 236.345 14.089 238.815 16.299 241.835C16.539 242.145 16.919 242.305 17.289 242.315C16.62 243.695 16.009 245.095 15.44 246.485C12.169 254.475 9.64995 263.085 8.18995 271.595C5.43995 287.645 7.11995 305.695 19.339 317.705C24.209 322.485 31.749 326.315 39.16 327.335C36.789 329.775 34.879 332.675 33.35 336.015C30.49 342.245 35.259 350.675 42.839 348.355C44.28 347.915 45.709 347.355 47.11 346.735C49.289 351.065 53.95 353.995 58.95 353.245C61.86 352.805 63.959 351.675 65.4 350.085C69.009 358.065 73.799 365.315 79.8699 371.715C86.2889 378.495 93.379 384.605 99.7799 391.405C105.999 398.005 109.69 406.625 117.02 412.065C119.299 413.755 122.79 411.955 123.43 409.455C125.915 399.726 119.222 391.626 112.872 384.935L112.07 384.095C105.259 377.015 97.39 371.105 90.14 364.505C82.61 357.645 76.549 350.365 71.089 341.765C70.6174 341.025 70.1472 340.27 69.6753 339.507L67.53 336.025C67.419 335.515 67.299 335.015 67.16 334.525C67.049 332.555 66.39 330.685 65.1199 328.965C63.549 326.835 61.45 325.225 59.11 324.475C58.32 323.635 57.499 322.835 56.64 322.095C57.709 320.925 58.65 319.545 59.45 317.945C60.93 314.965 59.2 310.225 55.24 310.615C54.0504 310.729 52.8818 310.675 51.7142 310.621C50.4369 310.562 49.1608 310.503 47.86 310.665C47.5484 310.704 47.237 310.745 46.9256 310.786C44.7888 311.069 42.6557 311.351 40.499 311.055C36.07 310.425 32.1 308.025 29.22 304.665C22.009 296.265 21.249 284.185 22.759 273.705C23.4263 269.026 24.5669 264.428 25.7788 259.855L27.6525 252.851C28.7204 248.937 30.007 244.881 32.52 241.695C40.4061 231.694 53.9178 239.542 62.0054 245.562L62.74 246.115C62.81 246.165 62.87 246.185 62.94 246.185C63.37 246.885 63.83 247.575 64.31 248.235C66.959 251.815 70.169 254.995 73.4799 257.995L74.1553 258.611C74.6084 259.02 75.066 259.425 75.52 259.825C79.39 263.235 84.629 260.725 85.14 255.845C86.089 246.645 85.83 237.345 86.419 228.105C87.0089 218.855 88.07 209.635 89.6499 200.505C91.2299 191.385 93.27 182.355 95.759 173.455C97.009 168.995 98.379 164.585 99.839 160.195C100.95 156.815 101.78 151.335 104.709 148.985C107.36 146.845 112.35 146.485 115.6 145.795C120.14 144.825 124.709 143.965 129.259 142.995C137.77 141.165 146.27 139.175 154.65 136.815C162.95 134.475 171.18 131.715 179.15 128.395C176.86 132.235 174.589 136.085 172.339 139.945C169.259 145.235 173.299 150.885 178.89 151.355C184.629 151.835 190.44 151.405 196.039 150.045C197.23 149.755 198.32 149.425 199.33 149.035C205.479 148.594 211.755 147.191 217.533 145.767L220.23 145.095C231.209 142.335 241.759 138.565 252.16 134.115C253.325 133.617 254.491 133.109 255.657 132.592C259.971 131.29 264.22 129.777 268.386 128.056C283.831 130.393 299.585 129.487 314.759 125.755C321.31 124.145 328.43 122.125 335.2 119.325C338.57 125.075 343.74 129.735 349.509 133.115C350.14 138.105 350.49 143.145 350.72 148.145C351.459 164.085 352.299 180.025 353.169 195.955L353.449 201.113C355.094 232.07 356.102 263.076 356.339 294.065C356.56 322.305 354.83 350.185 339.53 374.745C326.64 395.465 306.53 411.955 283.18 419.355C268.839 423.895 253.64 425.355 238.669 423.905C231.36 423.195 224.12 421.525 217.129 419.285L216.124 418.968C209.105 416.802 202.421 415.732 195.1 414.845C190.259 414.255 189.089 420.535 191.52 423.485C196.66 429.705 202.15 433.855 209.789 436.675C216.69 439.215 224.009 440.825 231.28 441.875C246.28 444.035 261.41 443.795 276.23 440.405C303.73 434.125 328.039 417.605 344.97 395.195C363.56 370.585 369.549 341.165 369.94 310.855C370.361 278.421 368.752 245.831 366.61 213.451L366.16 206.755C365.2 192.745 364.18 178.685 362.589 164.705C365.22 164.965 367.98 164.145 370.22 161.895C374.584 157.531 375.617 150.814 376.136 144.748L376.27 143.075C376.69 137.485 375.839 131.765 374.31 126.395C372.202 119.041 368.668 112.849 363.676 107.664C370.362 100.458 373.963 90.2596 374.757 80.6316C375.33 73.6936 375.863 64.5746 368.207 61.3416C366.695 60.7026 365.13 60.4666 363.556 60.4996C363.96 58.0286 364.233 55.5276 364.386 52.9966C364.631 48.9726 360.502 44.5616 356.369 44.9776C355.113 45.1046 353.857 45.2396 352.601 45.3706C353.352 44.1696 354.106 42.9716 354.88 41.7856C358.134 36.8086 353.736 31.2596 348.597 30.8346C334.938 29.7056 321.418 26.9046 308.386 22.6616C295.294 18.3976 281.618 14.1066 269.184 8.17159C268.306 7.75259 267.338 8.06259 266.736 8.66659C256.273 1.69209 241.083 0.631691 229.089 0.152327L227.86 0.104592ZM50.9901 264.032C46.347 261.873 40.0585 258.949 35.2303 260.525C33.0202 261.245 32.3693 263.585 33.3693 265.305L33.2892 265.305L33.4965 265.636C34.4149 267.034 35.5933 267.982 36.8854 268.882L37.4893 269.295C35.8693 270.445 34.6292 272.105 34.0892 274.225C33.2202 277.595 34.6292 281.735 37.8293 283.425C39.1103 284.095 40.4992 284.465 41.9492 284.535C43.9947 284.625 45.7013 283.683 47.2494 282.505L47.7093 282.145C48.3903 281.605 48.9403 280.885 49.3792 280.105C53.1103 284.925 56.2493 290.615 62.8392 290.795C65.9893 290.885 69.5493 288.375 70.1992 285.185C70.2702 284.875 70.3293 284.565 70.3903 284.265C70.9993 281.275 70.5602 277.775 68.1102 275.635C63.1903 271.355 58.1103 267.305 52.1403 264.565C51.7701 264.395 51.3861 264.216 50.9901 264.032Z" transform="translate(48.00005 65.00051)" fill="#000000" fill-rule="evenodd" stroke="none"></path></g></g><g transform="translate(159 186)"><g><path d="M161.26 3.75829C151.862 0.105287 135.062 -2.96371 127.162 5.02229C122.951 9.28029 125.484 15.1363 130.37 17.1713C133.516 18.4822 136.949 18.183 140.337 17.8877C141.669 17.7716 142.993 17.6562 144.29 17.6393C148.84 17.5813 153.361 18.1643 157.793 19.1723C161.357 19.9847 164.836 21.1098 168.293 22.2873L170.595 23.0773C171.32 23.3264 172.054 23.61 172.797 23.8967C175.616 24.9851 178.553 26.1192 181.532 25.5913C182.229 25.4673 182.565 24.7623 182.634 24.1453C183.089 20.0982 179.892 16.2352 177.024 13.4278L176.386 12.8144L175.972 12.4263C171.724 8.48129 166.624 5.84429 161.26 3.75829ZM33.6232 10.8211L35.7926 10.2262L38.0047 9.62924L39.5005 9.23374C49.7753 6.54436 61.1082 4.17756 71.2972 5.33309C75.0132 5.75509 78.0292 7.84609 78.5552 11.7391C78.9982 15.0241 76.8752 19.2621 73.2622 19.8461C61.2952 21.7821 49.0442 21.1541 37.0222 23.1501C31.0352 24.1431 25.0942 25.3761 19.1302 26.4871C14.5952 27.3331 9.90917 27.6301 5.33517 28.3141L6.38617 28.4601C6.75417 28.5101 6.66217 29.1291 6.29917 29.1041C4.79154 28.9536 3.28162 28.9302 1.7694 29.0359L1.12117 29.0891C0.134167 29.2281 -0.447833 28.0501 0.432167 27.4521C6.00517 23.6711 10.7342 19.5731 16.9742 16.7861C22.3712 14.3761 27.9262 12.3891 33.6232 10.8211ZM166.634 45.6655C168.478 45.1131 169.779 45.3742 171.441 46.2403C172.719 46.9059 173.589 47.9568 174.088 49.1838C174.599 50.4395 174.707 51.8878 174.454 53.2296C173.406 58.8007 170.042 63.7442 165.503 66.9282C161.091 70.0227 155.589 71.452 150.049 70.2614C146.003 69.3919 140.008 65.5531 136.85 60.8711C135.504 58.8752 134.671 56.736 134.581 54.6232C134.495 52.6084 135.008 50.5771 137.676 47.8994C137.936 47.8184 138.208 47.7747 138.477 47.7747C139.138 47.7747 139.821 48.0516 140.274 48.4513C141.469 49.502 142.312 50.8319 143.178 52.2626L143.41 52.6451C143.799 53.2818 144.2 53.9109 144.69 54.476C146.449 56.5028 149.003 58.2218 151.683 58.6693C154.167 59.0845 156.407 58.3485 158.181 56.9599C160.257 55.3353 161.713 52.8432 162.253 50.1809C162.472 49.1021 163.036 48.1297 163.818 47.3478C164.607 46.5588 165.615 45.9718 166.634 45.6655ZM49.1162 69.4299C47.1005 71.4882 44.4385 72.6496 41.0316 71.9587C38.3694 71.4193 33.3005 68.7424 29.2512 64.6199C26.481 61.7996 24.1647 58.2755 23.535 54.193C23.3888 53.2449 22.8856 52.6371 22.225 52.2543C21.7033 51.952 21.0154 51.8002 20.2661 51.876C19.6299 51.9404 18.9544 52.1708 18.4324 52.4762C17.4395 53.0572 17.0334 53.8821 16.9509 54.498C16.1543 60.4416 18.4501 66.3391 22.0288 71.3116C26.8584 78.0223 33.951 82.9399 38.1196 84.0909C45.2534 86.0617 52.7703 84.4928 58.3124 79.5277C62.7443 75.5578 65.0159 70.3856 67.1236 65.0671L67.53 64.0361C68.0041 62.8293 68.4745 61.6313 68.9729 60.4461C69.9719 58.0711 69.652 56.0181 68.6834 54.418C67.6103 52.6454 65.6296 51.3976 63.4246 51.0143C61.3865 50.6601 59.2055 51.0476 57.4838 52.2925C56.0293 53.3441 54.8564 55.0104 54.4397 57.4743C53.762 61.4809 52.1899 66.0779 49.4178 69.111L49.1162 69.4299Z" transform="translate(51.99983 63.00011)" fill="#000000" fill-rule="evenodd" stroke="none"></path></g></g><g transform="translate(123 338)"><g><path d="M276.67 82.0231C278.737 79.5551 285.109 75.4151 286.653 74.1321C289.701 71.6021 295.493 72.9491 295.189 77.6681L293.255 107.666C293.056 110.762 290.518 130.65 289.843 135.839C287.206 156.112 281.179 175.773 268.552 191.974C261.502 201.014 252.892 207.844 243.322 212.814C236.572 217.734 229.132 221.684 221.262 224.514C205.252 230.274 187.822 230.094 171.242 227.184C156.182 224.544 141.182 219.524 127.172 213.174C111.042 208.294 95.3216 202.064 80.3216 195.054C64.5716 187.694 47.6116 179.464 35.1316 167.074C23.1416 155.184 16.8616 139.054 12.8816 122.944C12.2716 120.484 11.7016 118.004 11.1716 115.514C10.6516 114.194 10.2216 112.774 9.88161 111.184C8.79161 106.134 7.80161 101.064 6.91161 95.9841C5.14161 85.9341 3.72161 75.8141 2.65161 65.6641C1.57161 55.3941 0.891612 45.0841 0.591612 34.7641C0.54156 33.006 0.435836 31.1613 0.327412 29.2696C-0.0840528 22.0905 -0.534392 14.2331 1.87161 7.85407C3.66161 3.11407 7.66161 0.104072 11.9916 0.00407165C14.3816 -0.0659284 16.8816 0.764072 19.1616 2.69407C24.6516 7.33407 47.3816 60.2241 56.0016 71.9741C64.8316 84.0041 74.8116 95.2941 85.8616 105.294C86.0516 105.404 86.2416 105.524 86.4216 105.644C101.412 101.864 114.892 94.4641 125.852 82.8841C135.512 72.6741 143.392 60.8341 154.822 52.4041C160.422 48.2741 166.902 45.3441 173.822 44.3941C178.977 43.691 184.101 44.1701 189.228 44.6497C193.509 45.0501 197.793 45.4507 202.102 45.1641C203.708 45.0594 205.295 44.9163 206.868 44.7745C214.012 44.1306 220.86 43.5134 227.802 46.6441C234.992 49.8741 240.502 55.7041 245.882 61.2741C253.452 69.1271 261.935 75.3901 271.464 79.8221C272.829 79.7921 274.168 80.2821 275.077 81.3981C275.605 81.6121 276.136 81.8201 276.67 82.0231ZM238.77 124.972C242.214 126.253 245.642 127.582 249.132 128.724C251.352 129.444 253.632 130.134 255.932 130.624C260.962 125.204 264.642 118.694 267.552 111.724C263.042 111.484 258.412 109.854 254.552 108.194C247.092 104.974 240.342 100.194 232.672 97.4641C216.512 91.7141 199.052 94.2441 182.962 98.8741C165.682 103.834 149.342 111.574 132.002 116.324C126.355 117.876 120.113 119.38 113.738 120.285C114.786 121.52 115.761 122.806 116.701 124.129C125.511 129.063 134.585 133.548 144.232 137.184C145.572 137.684 146.922 138.184 148.272 138.654C150.474 138.04 152.652 137.308 154.812 136.502C163.907 132.197 172.359 125.628 181.423 121.972C199.89 114.523 221.161 116.127 238.77 124.972Z" transform="translate(-0.9999123 -17.00057)" fill="#000000" fill-rule="evenodd" stroke="none"></path></g></g><g transform="translate(47 241)"></g></g></g></svg>