<?xml version="1.0" standalone="no"?>
<svg viewBox="-1300 -200 3350 3350" style="width: 487.5px; height: 487.5px; justify-content: center; align-self: center; transform: scale(1, 1);" xmlns="http://www.w3.org/2000/svg"><g transform="rotate(0 434.27264404296875 1463.654281616211)"><g transform="translate(-276 479)"><path d="M1013.24 2409.58C1020.27 2376.82 988.086 2365.75 967.795 2358.46C953.261 2349.03 899.409 2316.38 857.74 2276.08C823.643 2243.1 800.432 2200.83 790.77 2196.8C790.77 2196.8 780.824 2191.03 779.791 2186.75C773.739 2161.64 778.787 2138.23 779.791 2123C799.189 2117.91 814.733 2111.56 826.358 2102.67C829.748 2103.8 834.83 2105.25 836.345 2100.29C846.851 2030.2 851.386 1960.93 859.934 1890.78C892.29 1623.6 895.94 1311.46 840.275 1067.43C839.69 1055.34 840.745 1044.41 841.824 1034.02C849.351 1033.21 853.902 1025.92 860.048 1021.57C869.587 1013.98 880.882 1008.16 880.416 994.908C882.682 993.192 882.418 992.227 881.301 990.041C888.577 958.751 856.122 925.779 846.943 899.983C863.628 736.789 840.926 582.574 853.591 419.341C869.588 412.647 858.833 370.809 857.74 353.552C848.878 242.378 791.087 132.46 687.017 96.1412C681.068 94.9352 672.126 88.1352 667.203 92.7012C657.689 88.9322 645.031 96.3632 637.668 87.8082L637.742 87.7522C631.542 79.1552 628.763 68.2262 626.725 57.8922C627.066 60.8042 627.635 63.6922 628.336 66.5152C610.395 15.9512 605.875 2.43122 548.118 0.0502247C522.101 -0.297775 487.805 0.483225 472.635 25.2972C466.419 36.8322 468.318 50.0772 464.46 62.2192C457.378 84.5002 426.808 73.7332 410.759 85.3032C282.311 126.501 176.952 210.593 142.321 345.566C135.241 361.834 127.211 378.025 121.292 394.814C120.376 397.306 117.856 405.739 123.908 409.62L126.835 411.497C88.2814 591.698 85.7234 743.542 215.25 863.675C224.97 915.296 199.965 985.791 209.577 1035.91C204.1 1043.68 211.045 1049.94 218.047 1050.44C218.722 1050.82 221.45 1052.01 222.194 1052.35C211.051 1209.66 257.835 1421.67 278.457 1505.34C281.264 1555.58 264.117 1596.85 228.843 1624.23C189.87 1648.24 112.82 1756.65 127.104 1870.37C110.411 1873.65 93.8394 1875.44 77.8244 1881.72C7.75041 1869.35 8.44541 2004.44 3.98041 2051.94C-3.58159 2131.47 -8.28159 2246.74 67.2714 2297.65C87.1754 2312.09 127.533 2328.99 148.214 2305.88C154.991 2297.74 156.688 2289.87 154.022 2281.56C188.172 2233.31 178.969 2170.2 182.106 2113.61C192.009 2113.01 202.37 2117.66 211.949 2115.97C221.781 2107.3 185.913 2109.66 182.193 2109.15C182.574 2100.43 183.276 2091.24 184.182 2082.44C189.808 2083.57 197.015 2086.27 202.425 2086.47C205.627 2087.25 207.89 2082.84 205.957 2080.56C201.735 2076.53 190.97 2077.16 184.912 2076.58C185.935 2069.22 187.186 2061.48 188.576 2054.35C195.987 2054.09 203.64 2058.81 210.657 2057.84C205.346 2054.3 195.377 2055.38 188.903 2053.04C193.113 2030.1 201.691 2008.32 209.666 1986.86C229.234 1994.93 246.115 1995.25 265.218 1992.83C273.032 1994.03 276.842 1992.43 278.107 1982.66L277.608 1982.04C292.749 1891.44 341.607 1805.07 432.36 1707.12C450.286 1687.06 470.543 1663.43 484.04 1637.02C511.161 1582.06 515.793 1521.41 536.69 1464.33C556.2 1406.96 582.877 1352.08 607.924 1297.7C611.597 1325.57 616.531 1354.16 621.66 1381.5C644.234 1478.35 642.046 1581.68 625.433 1679.07C600.853 1815.48 612.701 1952.53 607.234 2089.9C607.309 2097.82 608.291 2105.02 607.129 2113.26C606.975 2113.9 607.275 2114.65 608.027 2114.63L609.446 2114.67C621.26 2123.32 637.576 2124.88 651.458 2129.58C657.288 2134.19 655.646 2141.5 656.18 2147.2C657.705 2171.77 659.655 2196.44 657.235 2221.76C646.523 2242.29 633.22 2238.05 630.499 2266.98C628.117 2300.01 623.903 2335.14 639.989 2364.55L633.903 2365.6C624.871 2384.56 630.385 2396.86 651.613 2404.88C756.411 2445.97 903.877 2483.27 1013.24 2452.26C1015.22 2454.23 1018.11 2452.18 1020.37 2449.09C1022.55 2446.11 1024.14 2442.16 1023.78 2439.87C1021.91 2429.81 1024.48 2411.44 1013.24 2409.58Z" transform="translate(199.0003 -35.99643)" fill="#FFFFFF" stroke="none"></path><path d="M1024.26 2380.04C1032.64 2382.58 1032.74 2391.82 1033 2398.98C1033.14 2400.9 1033.44 2402.81 1033.73 2404.72C1034.5 2409.67 1035.27 2414.59 1033.29 2419.62C1031.22 2425.35 1024.07 2432.46 1017.66 2428.83C928.149 2465.78 743.058 2412.05 655.948 2379.41C644.028 2374.58 631.698 2370.16 630.138 2356.18C629.218 2351.22 631.548 2332.48 637.688 2331.08C625.52 2305.81 627.692 2276.25 629.768 2247.98C630.033 2244.38 630.297 2240.8 630.528 2237.24C634.249 2207.17 643.888 2210.33 657.268 2190.55C659.29 2169.62 658.214 2153.14 656.946 2133.7C656.714 2130.16 656.476 2126.51 656.249 2122.72C656.05 2121.42 656.055 2119.87 656.061 2118.26C656.074 2114.47 656.089 2110.34 653.428 2108.31C639.749 2104.97 624.798 2102.2 612.899 2094.39C609.659 2094.3 606.579 2091.61 607.188 2087.32C607.944 2082 607.71 2076.9 607.473 2071.71C607.364 2069.34 607.255 2066.95 607.239 2064.52C610.123 2018.34 609.503 1972.06 608.883 1925.76C608.033 1862.25 607.182 1798.72 615.378 1735.41C617.98 1707.95 621.737 1680.55 625.494 1653.15C633.115 1597.56 640.739 1541.96 638.729 1485.81C636.758 1419.55 619.558 1355.28 610.348 1289.94C587.378 1339.55 563.948 1389.09 546.418 1440.75C525.608 1497.64 520.729 1559.25 493.528 1614.01C480.138 1640.21 460.808 1663.15 441.098 1685.21C369.539 1762.32 305.718 1851.82 287.928 1955.42C288.098 1955.63 288.249 1955.86 288.399 1956.1C287.388 1962.82 285.608 1971.05 277.909 1973.09C270.989 1972.16 263.508 1972.57 256.659 1974.01C243.448 1975.09 230.039 1972.25 217.659 1967.95C210.819 1986.36 203.718 2004.77 199.789 2024.02C206.258 2025.51 214.619 2024.55 219.508 2029.34C222.138 2032.29 220.888 2035.93 217.289 2037.35C213.232 2038.61 208.984 2037.38 204.76 2036.16C202.372 2035.47 199.992 2034.78 197.659 2034.55C196.909 2038.57 196.249 2042.6 195.659 2046.65C204.098 2047.11 217.649 2047.93 216.638 2058.66C214.426 2069.04 204.777 2066.43 196.747 2064.25C195.668 2063.96 194.618 2063.67 193.619 2063.43C193.119 2068.65 192.729 2073.87 192.458 2079.09C194.613 2079.16 196.881 2079.12 199.193 2079.07C206.408 2078.92 214.056 2078.77 220.069 2082.18C225.569 2085.5 224.739 2093.84 218.239 2095.56C212.921 2096.88 207.246 2095.85 201.632 2094.84C198.335 2094.24 195.059 2093.65 191.888 2093.54C191.395 2104.52 191.314 2115.78 191.233 2127.15C190.911 2172.21 190.576 2218.99 164.438 2257.27C166.979 2267.15 163.458 2276.19 156.999 2283.92C134.168 2309.18 92.8083 2293.16 69.3783 2276.48C-0.311673 2226.82 -3.32167 2135.91 1.49933 2060.07C2.50915 2051.66 3.19915 2039.98 4.00155 2026.4C8.09387 1957.14 15.11 1838.41 82.3883 1851.3C96.9793 1845.79 111.048 1843.97 126.079 1841.17C124.178 1832.87 123.048 1824.27 124.198 1815.82C132.308 1733.36 161.518 1646.83 230.858 1594.99C267.329 1566.64 280.878 1525.77 278.499 1480.84C246.329 1350.12 213.138 1165.75 221.989 1030.25C221.816 1030.17 221.653 1030.08 221.485 1030C221.256 1029.96 221.024 1029.92 220.799 1029.88C213.384 1028.52 206.663 1023.2 207.711 1014.94C207.936 1013.16 208.511 1011.5 209.324 1009.94C204.558 987.318 209.186 951.146 212.954 921.695C215.106 904.882 216.977 890.259 216.659 881.599C216.684 877.91 216.855 874.179 217.027 870.434C217.478 860.574 217.935 850.616 215.739 841.079C82.2683 719.519 90.8883 550.659 126.218 388.589C118.968 383.939 118.968 375.029 121.608 367.849C127.508 351.269 135.289 335.109 142.499 319.029C174.798 198.269 267.338 102.529 389.028 66.5786C391.536 65.8915 395.914 63.7947 401.059 61.3309C414.707 54.7946 433.749 45.6751 437.569 53.4386C446.338 51.4586 455.149 49.6486 463.999 47.9586C468.768 39.1986 471.579 29.4986 472.569 19.5986C473.017 17.2837 472.958 14.7521 472.899 12.215C472.803 8.12149 472.708 4.01365 474.739 0.778639C474.548 0.208639 475.039 -0.421361 475.348 0.378639C484.369 -1.24136 483.058 6.81864 481.508 12.8486C484.518 30.0286 480.508 48.1686 471.698 63.0986C462.489 83.9486 438.268 79.2286 457.399 57.9686C431.369 61.7486 418.768 74.5086 433.369 98.0586C453.848 166.229 714.319 171.419 671.239 72.5386C669.069 71.3886 649.208 65.9586 644.848 62.3386C648.528 70.5386 650.649 84.5286 660.168 87.2486C663.268 87.6086 665.409 92.0786 661.948 93.7986C644.456 101.169 638.27 77.0114 634.468 62.1626C633.906 59.9671 633.396 57.9751 632.909 56.3186C627.428 41.7786 623.458 25.5086 629.188 11.1086C632.232 9.37503 634.877 22.7422 637.391 35.4554C639.214 44.6689 640.969 53.539 642.758 56.0686C643.188 56.1586 643.588 56.2286 643.928 56.2186C644.058 56.9886 644.608 57.6786 645.468 58.3086C650.088 61.6886 663.579 63.1786 667.768 65.1286C671.718 58.5186 681.108 60.9786 686.878 63.8186C695.418 67.0686 705.178 69.0686 712.168 74.9686C811.778 116.709 858.628 227.509 867.729 327.859C867.973 330.428 868.452 333.861 869.007 337.835C871.75 357.492 876.339 390.366 863.378 397.229C857.653 473.13 859.56 547.757 861.464 622.226C863.599 705.778 865.73 789.133 857.069 873.869C864.558 889.769 873.039 905.059 882.018 920.209C890.208 933.509 894.229 948.789 891.499 964.179C892.668 966.839 892.418 969.909 890.289 971.939C889.319 986.929 878.598 991.739 868.058 1000.33C862.388 1004.2 858.308 1010.89 851.458 1012.72C850.489 1022.27 849.808 1031.9 850.258 1041.52C907.698 1295.43 900.938 1609.13 869.909 1866.14C861.399 1935.93 856.749 2006.33 846.289 2075.87C845.088 2082.66 838.079 2084.62 832.298 2082.92C819.718 2091.94 804.708 2097.44 789.579 2101.63C788.119 2126.05 787.739 2138.16 792.729 2161.98C796.119 2160.83 801.198 2160.53 801.928 2164.42C822.308 2173.24 826.508 2197.84 839.548 2213.87C841.222 2213.56 843.027 2213.15 844.909 2212.72C854.59 2210.5 866.276 2207.83 872.229 2215.7C875.389 2225.94 862.114 2226.49 853.61 2226.84C852.132 2226.9 850.797 2226.96 849.718 2227.06C854.108 2232.57 858.579 2238.01 863.208 2243.35C865.317 2242.84 867.7 2242.08 870.218 2241.27C879.212 2238.38 889.927 2234.93 895.989 2241.07C897.668 2242.9 898.289 2245.37 896.899 2247.75C892.438 2255.35 882.698 2254.81 875.039 2256.29C881.188 2262.39 887.698 2268.15 894.418 2273.67C906.249 2269.22 917.558 2262.82 930.149 2261.16C937.258 2260.17 940.418 2270.86 933.858 2274.07C925.168 2278.33 915.388 2280.54 905.608 2282.38C926.668 2299.28 952.659 2309.08 975.579 2323.1C1002.46 2331.64 1028.06 2349.2 1024.26 2380.04ZM462.848 49.9986C462.659 50.3286 462.458 50.6586 462.258 50.9786C460.938 51.0686 459.608 51.1886 458.258 51.3386C459.789 50.8786 461.319 50.4486 462.848 49.9986ZM595.979 1080.62C586.069 1075.84 577.708 1068.19 572.729 1058.68C570.418 1054.26 577.319 1050.36 579.688 1054.79C584.468 1063.71 594.388 1073.03 605.508 1075.07C598.844 1059.59 597.184 1047.02 595.759 1036.23C592.863 1014.31 590.94 999.751 549.948 983.089C399.888 929.139 386.598 742.569 272.249 651.779C259.808 655.679 257.608 638.769 259.558 629.989C266.018 558.969 266.979 495.529 281.979 425.539C239.448 404.739 191.958 393.409 144.729 387.769C115.468 546.339 91.1593 690.289 218.558 817.239C282.128 886.339 352.088 949.799 417.758 1017.04C431.168 1028.98 440.329 1044.53 449.079 1059.97C455.879 1071.96 472.493 1090.07 483.265 1101.81C489.126 1108.2 493.258 1112.7 493.138 1113.31C518.048 1132.33 523.808 1133.92 547.018 1112.3C553.838 1107.52 561.428 1106.59 569.319 1104.41C581.378 1100.37 576.358 1091.9 594.208 1088.25C594.338 1085.72 594.758 1083.02 595.979 1080.62ZM844.428 395.019C838.239 480.351 839.453 557.026 840.791 641.625C840.86 646.014 840.93 650.424 840.999 654.859C841.808 715.329 842.188 775.819 840.088 836.269C800.459 733.841 799.363 624.922 798.27 516.276C797.895 478.99 797.52 441.737 795.588 404.789C811.319 399.549 828.218 397.259 844.428 395.019ZM641.014 958.938C637.416 960.251 638.969 966.051 642.609 964.723C667.853 955.511 695.056 953.906 721.698 954.908C750.045 955.974 778.167 960.077 806.2 964.187C816.856 965.749 827.513 967.321 838.197 968.689C840.625 969.113 843.057 969.522 845.493 969.907C846.073 969.999 846.594 969.927 847.06 969.76C847.764 969.842 848.466 969.935 849.17 970.014C853.001 970.446 852.971 964.442 849.17 964.014C845.977 963.655 842.782 963.27 839.586 962.867C823.933 960.132 808.408 956.712 792.762 953.926C776.419 951.015 759.915 949.162 743.375 947.782C712.602 945.216 679.69 944.172 650.229 954.905C649.365 955.22 648.805 955.797 648.493 956.469C645.983 957.231 643.485 958.036 641.014 958.938ZM290.452 1002.27C286.772 1002.7 283.082 1003.02 279.389 1003.32C278.961 1003.66 278.43 1003.92 277.78 1004C272.026 1004.72 266.159 1005.66 260.345 1006.93C251.719 1009.99 243.002 1012.78 234.325 1015.69C233.565 1016.06 232.809 1016.44 232.062 1016.84C231.346 1017.22 230.653 1017.28 230.027 1017.14C229.774 1017.22 229.519 1017.3 229.266 1017.39C229.201 1017.41 229.135 1017.44 229.071 1017.46C228.841 1017.45 228.61 1017.44 228.375 1017.43C228.034 1017.42 227.447 1017.39 226.752 1017.35C226.737 1017.08 226.742 1016.82 226.734 1016.56C224.285 1016.63 222.09 1013.57 224.395 1011.55C232.844 1004.14 244.195 1001.43 255.044 999.793C266.788 998.019 278.667 997.648 290.452 996.27C294.286 995.822 294.241 1001.83 290.452 1002.27ZM121.649 2026.77C127.048 2019.71 172.039 2021.26 182.558 2022.07C186.039 2006.49 190.718 1991.09 196.778 1976.29C164.358 2000.19 119.718 1973.29 117.548 1937.11C117.829 1911.94 121.098 1885.75 131.358 1862.49C130.358 1858.57 129.468 1854.68 128.569 1850.72C104.909 1851.93 76.9283 1855.99 66.6493 1879.39C37.8693 1963.54 35.3783 2056.62 49.8993 2143.92C56.4483 2181.39 77.5883 2259.49 125.778 2262.03C171.637 2255.83 172.794 2170.49 173.496 2118.76C173.637 2108.31 173.76 2099.24 174.229 2092.46C168.161 2091.87 161.981 2092.05 155.819 2092.23C148.9 2092.43 142.004 2092.63 135.319 2091.74C135.289 2086.43 169.048 2080.84 174.789 2080.23C175.168 2073.5 175.678 2066.77 176.378 2060.05C161.968 2057.19 147.018 2059.25 132.659 2056.96C140.708 2048.09 165.399 2047.54 178.079 2046.33C178.778 2041.42 179.628 2036.53 180.569 2031.63C167.999 2029.85 155.329 2028.73 142.628 2028.21C140.691 2028.12 138.595 2028.19 136.44 2028.25L136.432 2028.25C131.328 2028.41 125.925 2028.58 121.649 2026.77ZM118.789 2282.34C23.3383 2261.82 7.67833 2151.28 14.2393 2070C15.2531 2059.28 15.8438 2046.3 16.4909 2032.08C19.2584 1971.29 23.058 1887.83 65.3883 1860.89C-2.11167 1922.51 3.74933 2342.01 153.338 2268.79C149.608 2280.61 130.428 2284.02 118.789 2282.34ZM138.048 1883.57C137.848 1885.03 137.659 1886.48 137.489 1887.94C137.19 1892.58 136.597 1897.49 135.989 1902.52C133.369 1924.19 130.48 1948.09 149.718 1962.52C163.308 1973.08 183.448 1969.24 193.789 1956.34C166.778 1939.68 148.638 1912.34 138.048 1883.57ZM779.229 2167.08C751.858 2187.33 725.138 2209.88 706.128 2238.12C693.548 2261.09 676.808 2247.1 672.649 2228.7C669.278 2187.62 672.178 2152.14 668.229 2110.81C706.079 2115.97 744.958 2112.79 781.928 2103.66C777.479 2122.11 775.438 2129.11 775.298 2148.04C775.539 2154.28 775.448 2161.89 779.229 2167.08ZM656.928 2209.36C647.278 2224.34 644.558 2242.24 642.858 2259.2C638.308 2338.32 661.489 2348.97 732.928 2362.12C791.358 2378.02 849.808 2396.22 911.638 2398.8C931.418 2400.45 951.468 2400.02 971.378 2397.19C991.058 2395.39 1012.39 2392.67 1005.55 2367.18C996.999 2341.69 964.338 2339.01 942.848 2327.26C921.369 2316.6 902.178 2302.37 885.039 2286.23C873.869 2288.26 860.979 2289.92 853.489 2298.95C853.138 2299.37 852.499 2298.88 852.758 2298.45C858.218 2288.85 868.778 2284.25 878.778 2280.13C872.159 2273.51 866.108 2266.42 859.458 2259.82C844.508 2262.81 830.098 2270.09 815.229 2272.51C815.048 2265.57 842.548 2251.67 849.369 2248.67C844.149 2242.6 839.178 2236.32 834.489 2229.85C819.848 2232.93 806.999 2241.67 793.039 2246.37C795.088 2234.62 815.348 2223.27 826.528 2218.29C816.499 2206.38 809.808 2177.93 794.249 2175.25C766.278 2191.32 741.518 2213.42 722.208 2238.88C716.399 2246.62 711.338 2256.26 702.308 2261.05C670.428 2274.76 655.878 2233.58 656.928 2209.36ZM1023.73 2416.49C929.558 2458.78 758.558 2405.42 666.028 2374.55C665.093 2374.21 664.18 2373.88 663.292 2373.56C640.478 2365.38 633.03 2362.7 639.758 2335.02C652.838 2360.26 680.968 2366.36 707.918 2371.42C728.621 2376.14 749.416 2381.76 770.335 2387.42C841.657 2406.72 914.42 2426.4 989.909 2411.9C1004.24 2409.65 1018.42 2401.89 1022.59 2387.57C1024.17 2391.29 1024.18 2395.83 1024.19 2400.32C1024.19 2403.14 1024.2 2405.95 1024.6 2408.53C1024.79 2411.19 1024.85 2414.07 1023.73 2416.49Z" transform="translate(193.0002 -10.00104)" fill="#000000" fill-rule="evenodd" stroke="none"></path></g><g transform="translate(225 0)"><g><g><path d="M340.529 155.003C338.376 136.088 341.162 96.5517 341.348 94.1497C342.529 78.9648 335.414 19.0018 321.964 24.5268C299.401 6.66576 269.351 2.72176 241.251 0.837757C182.883 -3.07624 120.791 5.90876 75.7204 45.1888C53.4316 65.5878 31.7323 95.2567 33.4765 126.149C13.2256 155.431 -15.3236 195.598 9.90814 229.831C18.4849 240.768 32.1161 244.841 42.8905 253.124C64.5622 270.604 78.1586 295.69 100.036 313.066C157.996 365.149 256.413 376.029 313.359 316.789C357.394 273.885 350.274 209.699 342.529 155.003C337.321 118.23 344.728 191.904 340.529 155.003Z" transform="translate(65.0005 149)" fill="#FFFFFF" stroke="none"></path><path d="M227.86 0.104592C211.919 -0.485408 195.89 1.47459 180.28 4.62459C149.299 10.8646 117.57 21.0746 89.509 35.7146C77.727 41.8646 66.8569 49.4596 57.054 58.2086C48.193 53.9716 34.213 53.6276 31.373 63.3436C30.558 66.1326 30.964 68.6606 32.134 70.8226C31.793 71.0166 31.456 71.2246 31.126 71.4456C28.8908 72.9424 27.6975 74.0315 26.3137 75.4062L25.221 76.5016C21.761 79.9726 21.434 86.3956 25.221 89.8226L25.739 90.2906L26.0576 90.5686C26.7029 91.1105 27.3954 91.5689 28.118 91.9486C14.847 112.287 5.83895 135.465 2.10995 159.685C-0.0810489 173.905 -0.720049 188.125 0.929951 202.435C1.72995 209.425 2.92995 216.885 5.37895 223.495C6.56995 226.725 8.24895 229.865 9.75895 232.965C11.4 236.345 14.089 238.815 16.299 241.835C16.539 242.145 16.919 242.305 17.289 242.315C16.62 243.695 16.009 245.095 15.44 246.485C12.169 254.475 9.64995 263.085 8.18995 271.595C5.43995 287.645 7.11995 305.695 19.339 317.705C24.209 322.485 31.749 326.315 39.16 327.335C36.789 329.775 34.879 332.675 33.35 336.015C30.49 342.245 35.259 350.675 42.839 348.355C44.28 347.915 45.709 347.355 47.11 346.735C49.289 351.065 53.95 353.995 58.95 353.245C61.86 352.805 63.959 351.675 65.4 350.085C69.009 358.065 73.799 365.315 79.8699 371.715C86.2889 378.495 93.379 384.605 99.7799 391.405C105.999 398.005 109.69 406.625 117.02 412.065C119.299 413.755 122.79 411.955 123.43 409.455C125.915 399.726 119.222 391.626 112.872 384.935L112.07 384.095C105.259 377.015 97.39 371.105 90.14 364.505C82.61 357.645 76.549 350.365 71.089 341.765C70.6174 341.025 70.1472 340.27 69.6753 339.507L67.53 336.025C67.419 335.515 67.299 335.015 67.16 334.525C67.049 332.555 66.39 330.685 65.1199 328.965C63.549 326.835 61.45 325.225 59.11 324.475C58.32 323.635 57.499 322.835 56.64 322.095C57.709 320.925 58.65 319.545 59.45 317.945C60.93 314.965 59.2 310.225 55.24 310.615C54.0504 310.729 52.8818 310.675 51.7142 310.621C50.4369 310.562 49.1608 310.503 47.86 310.665C47.5484 310.704 47.237 310.745 46.9256 310.786C44.7888 311.069 42.6557 311.351 40.499 311.055C36.07 310.425 32.1 308.025 29.22 304.665C22.009 296.265 21.249 284.185 22.759 273.705C23.4263 269.026 24.5669 264.428 25.7788 259.855L27.6525 252.851C28.7204 248.937 30.007 244.881 32.52 241.695C40.4061 231.694 53.9178 239.542 62.0054 245.562L62.74 246.115C62.81 246.165 62.87 246.185 62.94 246.185C63.37 246.885 63.83 247.575 64.31 248.235C66.959 251.815 70.169 254.995 73.4799 257.995L74.1553 258.611C74.6084 259.02 75.066 259.425 75.52 259.825C79.39 263.235 84.629 260.725 85.14 255.845C86.089 246.645 85.83 237.345 86.419 228.105C87.0089 218.855 88.07 209.635 89.6499 200.505C91.2299 191.385 93.27 182.355 95.759 173.455C97.009 168.995 98.379 164.585 99.839 160.195C100.95 156.815 101.78 151.335 104.709 148.985C107.36 146.845 112.35 146.485 115.6 145.795C120.14 144.825 124.709 143.965 129.259 142.995C137.77 141.165 146.27 139.175 154.65 136.815C162.95 134.475 171.18 131.715 179.15 128.395C176.86 132.235 174.589 136.085 172.339 139.945C169.259 145.235 173.299 150.885 178.89 151.355C184.629 151.835 190.44 151.405 196.039 150.045C197.23 149.755 198.32 149.425 199.33 149.035C205.479 148.594 211.755 147.191 217.533 145.767L220.23 145.095C231.209 142.335 241.759 138.565 252.16 134.115C253.325 133.617 254.491 133.109 255.657 132.592C259.971 131.29 264.22 129.777 268.386 128.056C283.831 130.393 299.585 129.487 314.759 125.755C321.31 124.145 328.43 122.125 335.2 119.325C338.57 125.075 343.74 129.735 349.509 133.115C350.14 138.105 350.49 143.145 350.72 148.145C351.459 164.085 352.299 180.025 353.169 195.955L353.449 201.113C355.094 232.07 356.102 263.076 356.339 294.065C356.56 322.305 354.83 350.185 339.53 374.745C326.64 395.465 306.53 411.955 283.18 419.355C268.839 423.895 253.64 425.355 238.669 423.905C231.36 423.195 224.12 421.525 217.129 419.285L216.124 418.968C209.105 416.802 202.421 415.732 195.1 414.845C190.259 414.255 189.089 420.535 191.52 423.485C196.66 429.705 202.15 433.855 209.789 436.675C216.69 439.215 224.009 440.825 231.28 441.875C246.28 444.035 261.41 443.795 276.23 440.405C303.73 434.125 328.039 417.605 344.97 395.195C363.56 370.585 369.549 341.165 369.94 310.855C370.361 278.421 368.752 245.831 366.61 213.451L366.16 206.755C365.2 192.745 364.18 178.685 362.589 164.705C365.22 164.965 367.98 164.145 370.22 161.895C374.584 157.531 375.617 150.814 376.136 144.748L376.27 143.075C376.69 137.485 375.839 131.765 374.31 126.395C372.202 119.041 368.668 112.849 363.676 107.664C370.362 100.458 373.963 90.2596 374.757 80.6316C375.33 73.6936 375.863 64.5746 368.207 61.3416C366.695 60.7026 365.13 60.4666 363.556 60.4996C363.96 58.0286 364.233 55.5276 364.386 52.9966C364.631 48.9726 360.502 44.5616 356.369 44.9776C355.113 45.1046 353.857 45.2396 352.601 45.3706C353.352 44.1696 354.106 42.9716 354.88 41.7856C358.134 36.8086 353.736 31.2596 348.597 30.8346C334.938 29.7056 321.418 26.9046 308.386 22.6616C295.294 18.3976 281.618 14.1066 269.184 8.17159C268.306 7.75259 267.338 8.06259 266.736 8.66659C256.273 1.69209 241.083 0.631691 229.089 0.152327L227.86 0.104592ZM50.9901 264.032C46.347 261.873 40.0585 258.949 35.2303 260.525C33.0202 261.245 32.3693 263.585 33.3693 265.305L33.2892 265.305L33.4965 265.636C34.4149 267.034 35.5933 267.982 36.8854 268.882L37.4893 269.295C35.8693 270.445 34.6292 272.105 34.0892 274.225C33.2202 277.595 34.6292 281.735 37.8293 283.425C39.1103 284.095 40.4992 284.465 41.9492 284.535C43.9947 284.625 45.7013 283.683 47.2494 282.505L47.7093 282.145C48.3903 281.605 48.9403 280.885 49.3792 280.105C53.1103 284.925 56.2493 290.615 62.8392 290.795C65.9893 290.885 69.5493 288.375 70.1992 285.185C70.2702 284.875 70.3293 284.565 70.3903 284.265C70.9993 281.275 70.5602 277.775 68.1102 275.635C63.1903 271.355 58.1103 267.305 52.1403 264.565C51.7701 264.395 51.3861 264.216 50.9901 264.032Z" transform="translate(48.00005 65.00051)" fill="#000000" fill-rule="evenodd" stroke="none"></path></g></g><g transform="translate(159 186)"><g><path d="M158.318 0.693899C152.624 -0.294101 146.406 -0.326101 140.801 1.2469C136.392 2.4829 129.461 5.2939 127.556 9.7969C127.172 10.7059 127.178 12.1069 128.286 12.5789C129.782 13.0739 132.392 13.3339 132.12 12.7759C133.404 12.6387 134.699 12.3881 136.002 12.1362C138.05 11.74 140.115 11.3407 142.172 11.3749C146.542 11.4479 150.621 12.2129 154.693 13.8459C158.359 15.3159 161.795 17.4139 164.72 20.0749C168.265 23.2989 170.235 28.1409 174.422 30.5579C179.558 33.5219 185.507 29.6969 185.778 24.0419C186.103 17.2698 180.049 11.7076 174.976 7.88481L174.436 7.4819C169.789 4.0409 164.01 1.6819 158.318 0.693899ZM11.2575 13.4754C20.3265 5.4474 36.8055 -2.3056 49.0345 1.6454C56.0655 3.9164 59.1305 15.2454 51.2815 18.8364C42.1925 22.9944 31.7135 21.3024 22.4625 25.6124C18.5775 27.4234 14.9235 29.6864 12.2185 33.0054C10.0875 35.6214 7.91949 39.0634 4.83749 40.5714C4.02749 40.9684 2.93049 40.9784 2.28149 40.2424C-4.47451 32.6004 5.35849 18.6964 11.2575 13.4754ZM183.351 63.4506C187.073 48.5286 170.526 33.8726 156.389 35.0376C149.225 35.6286 142.842 39.7526 138.922 45.7026C136.183 49.8606 133.59 58.1526 137.91 62.1356C138.52 62.6976 139.347 62.6636 139.965 62.1356C142.475 59.9866 143.924 56.4336 146.347 54.0056C149.03 51.3166 152.561 49.4036 156.389 49.1456C159.862 48.9116 163.093 50.4356 165.367 53.0596C168.122 56.2376 168.018 59.6236 169.057 63.4506C170.945 70.4056 181.566 70.6106 183.351 63.4506ZM38.1784 39.9406C45.5584 38.6316 53.1184 40.4666 59.2254 44.7846L59.6882 45.1175C65.5717 49.4203 72.1545 56.9758 68.7784 64.3926C67.4234 67.3706 63.3654 67.8376 60.7904 66.4876C56.5034 64.2396 55.7264 58.7086 51.9014 55.6476C48.7644 53.1386 44.5404 51.6166 40.5004 51.9836C31.0094 52.8456 25.1714 62.2066 22.2234 70.2736C21.8464 71.3056 20.3314 71.7066 19.7394 70.5986C12.7884 57.6066 25.0924 42.2626 38.1784 39.9406ZM129.748 109.04C137.871 97.6606 126.365 86.9575 118.814 82.3675C116.836 80.9475 118.406 76.2437 122.633 76.9707C161.03 83.5677 141.135 149.708 92.1117 113.413C86.2751 108.705 93.3431 98.3342 99.6339 102.366C99.9529 102.611 100.287 102.87 100.636 103.139C107.704 108.604 120.635 118.602 129.748 109.04ZM74.1496 134.293C79.7437 125.091 91.6675 147.632 92.9344 151.508C94.0565 154.942 94.7972 158.459 95.1736 162.017C99.5106 162.989 104.014 162.991 108.458 162.139C115.063 160.872 119.1 157.322 124.84 154.273C128.805 152.166 133.802 154.636 135.864 158.13C138.289 162.243 136.744 166.511 133.554 169.577C127.505 175.391 115.603 176.727 107.707 175.183C103.183 174.299 99.0371 172.602 95.3756 170.136C95.3514 170.597 95.3352 171.057 95.2989 171.516L95.229 172.313C94.6223 178.761 92.85 186.869 87.8417 191.065C79.6274 197.947 69.4898 184.711 77.4715 177.836L77.7189 177.63C82.6801 173.621 83.7624 162.866 83.4952 156.943C83.3201 153.076 82.6158 149.16 81.395 145.478L81.144 144.745C80.7765 143.704 76.7699 133.837 75.3221 135.094L75.253 135.165C74.6559 135.877 73.6911 135.047 74.1496 134.293Z" transform="translate(52.00031 61.9997)" fill="#000000" fill-rule="evenodd" stroke="none"></path></g></g><g transform="translate(123 338)"><g><path d="M276.67 82.0231C278.737 79.5551 285.109 75.4151 286.653 74.1321C289.701 71.6021 295.493 72.9491 295.189 77.6681L293.255 107.666C293.056 110.762 290.518 130.65 289.843 135.839C287.206 156.112 281.179 175.773 268.552 191.974C261.502 201.014 252.892 207.844 243.322 212.814C236.572 217.734 229.132 221.684 221.262 224.514C205.252 230.274 187.822 230.094 171.242 227.184C156.182 224.544 141.182 219.524 127.172 213.174C111.042 208.294 95.3216 202.064 80.3216 195.054C64.5716 187.694 47.6116 179.464 35.1316 167.074C23.1416 155.184 16.8616 139.054 12.8816 122.944C12.2716 120.484 11.7016 118.004 11.1716 115.514C10.6516 114.194 10.2216 112.774 9.88161 111.184C8.79161 106.134 7.80161 101.064 6.91161 95.9841C5.14161 85.9341 3.72161 75.8141 2.65161 65.6641C1.57161 55.3941 0.891612 45.0841 0.591612 34.7641C0.54156 33.006 0.435836 31.1613 0.327412 29.2696C-0.0840528 22.0905 -0.534392 14.2331 1.87161 7.85407C3.66161 3.11407 7.66161 0.104072 11.9916 0.00407165C14.3816 -0.0659284 16.8816 0.764072 19.1616 2.69407C24.6516 7.33407 47.3816 60.2241 56.0016 71.9741C64.8316 84.0041 74.8116 95.2941 85.8616 105.294C86.0516 105.404 86.2416 105.524 86.4216 105.644C101.412 101.864 114.892 94.4641 125.852 82.8841C135.512 72.6741 143.392 60.8341 154.822 52.4041C160.422 48.2741 166.902 45.3441 173.822 44.3941C178.977 43.691 184.101 44.1701 189.228 44.6497C193.509 45.0501 197.793 45.4507 202.102 45.1641C203.708 45.0594 205.295 44.9163 206.868 44.7745C214.012 44.1306 220.86 43.5134 227.802 46.6441C234.992 49.8741 240.502 55.7041 245.882 61.2741C253.452 69.1271 261.935 75.3901 271.464 79.8221C272.829 79.7921 274.168 80.2821 275.077 81.3981C275.605 81.6121 276.136 81.8201 276.67 82.0231ZM238.77 124.972C242.214 126.253 245.642 127.582 249.132 128.724C251.352 129.444 253.632 130.134 255.932 130.624C260.962 125.204 264.642 118.694 267.552 111.724C263.042 111.484 258.412 109.854 254.552 108.194C247.092 104.974 240.342 100.194 232.672 97.4641C216.512 91.7141 199.052 94.2441 182.962 98.8741C165.682 103.834 149.342 111.574 132.002 116.324C126.355 117.876 120.113 119.38 113.738 120.285C114.786 121.52 115.761 122.806 116.701 124.129C125.511 129.063 134.585 133.548 144.232 137.184C145.572 137.684 146.922 138.184 148.272 138.654C150.474 138.04 152.652 137.308 154.812 136.502C163.907 132.197 172.359 125.628 181.423 121.972C199.89 114.523 221.161 116.127 238.77 124.972Z" transform="translate(-0.9999123 -17.00057)" fill="#000000" fill-rule="evenodd" stroke="none"></path></g></g><g transform="translate(47 241)"></g></g></g></svg>